<?xml version="1.0" encoding="UTF-8" standalone="no"?>
<!DOCTYPE svg PUBLIC "-//W3C//DTD SVG 1.1//EN" "http://www.w3.org/Graphics/SVG/1.1/DTD/svg11.dtd">
<svg width="100%" height="100%" viewBox="0 0 650 750" version="1.1" xmlns="http://www.w3.org/2000/svg" xmlns:xlink="http://www.w3.org/1999/xlink" xml:space="preserve" xmlns:serif="http://www.serif.com/" style="fill-rule:evenodd;clip-rule:evenodd;stroke-linecap:round;stroke-linejoin:round;stroke-miterlimit:2;">
    <g id="path2" transform="matrix(14.806322,0,0,14.806322,0.000001,-1.080587)">
        <path d="M21.95,50.8L0,38.1L0,12.7L21.95,0L43.9,12.7L43.9,38.1L21.95,50.8Z" style="fill:white;"/>
    </g>
    <g transform="matrix(2.324334,0,0,2.199142,-121.388405,-5.938693)">
        <path d="M213.46,202.47C213.46,201.476 212.654,200.67 211.66,200.67C210.665,200.67 209.86,201.476 209.86,202.47C209.86,203.465 210.665,204.27 211.66,204.27C212.654,204.27 213.46,203.465 213.46,202.47Z" style="fill:rgb(0,1,255);fill-rule:nonzero;"/>
    </g>
    <g transform="matrix(2.324334,0,0,2.199142,-121.388405,-5.938693)">
        <path d="M213.46,202.47C213.46,201.476 212.654,200.67 211.66,200.67C210.665,200.67 209.86,201.476 209.86,202.47C209.86,203.465 210.665,204.27 211.66,204.27C212.654,204.27 213.46,203.465 213.46,202.47Z" style="fill:none;stroke:rgb(0,1,255);stroke-width:0.75px;"/>
    </g>
    <g transform="matrix(2.324334,0,0,2.199142,-121.388405,-5.938693)">
        <path d="M259.97,126.97C259.97,125.976 259.164,125.17 258.17,125.17C257.175,125.17 256.37,125.976 256.37,126.97C256.37,127.965 257.175,128.77 258.17,128.77C259.164,128.77 259.97,127.965 259.97,126.97Z" style="fill:rgb(0,1,255);fill-rule:nonzero;"/>
    </g>
    <g transform="matrix(2.324334,0,0,2.199142,-121.388405,-5.938693)">
        <path d="M259.97,126.97C259.97,125.976 259.164,125.17 258.17,125.17C257.175,125.17 256.37,125.976 256.37,126.97C256.37,127.965 257.175,128.77 258.17,128.77C259.164,128.77 259.97,127.965 259.97,126.97Z" style="fill:none;stroke:rgb(0,1,255);stroke-width:0.75px;"/>
    </g>
    <g transform="matrix(2.324334,0,0,2.199142,-121.388405,-5.938693)">
        <path d="M297.69,143.11C297.69,142.116 296.884,141.31 295.89,141.31C294.895,141.31 294.09,142.116 294.09,143.11C294.09,144.105 294.895,144.91 295.89,144.91C296.884,144.91 297.69,144.105 297.69,143.11Z" style="fill:rgb(0,1,255);fill-rule:nonzero;"/>
    </g>
    <g transform="matrix(2.324334,0,0,2.199142,-121.388405,-5.938693)">
        <path d="M297.69,143.11C297.69,142.116 296.884,141.31 295.89,141.31C294.895,141.31 294.09,142.116 294.09,143.11C294.09,144.105 294.895,144.91 295.89,144.91C296.884,144.91 297.69,144.105 297.69,143.11Z" style="fill:none;stroke:rgb(0,1,255);stroke-width:0.75px;"/>
    </g>
    <g transform="matrix(2.324334,0,0,2.199142,-121.388405,-5.938693)">
        <path d="M306.46,93.07C306.46,92.076 305.654,91.271 304.66,91.271C303.665,91.271 302.86,92.076 302.86,93.07C302.86,94.065 303.665,94.87 304.66,94.87C305.654,94.87 306.46,94.065 306.46,93.07Z" style="fill:rgb(0,1,255);fill-rule:nonzero;"/>
    </g>
    <g transform="matrix(2.324334,0,0,2.199142,-121.388405,-5.938693)">
        <path d="M306.46,93.07C306.46,92.076 305.654,91.271 304.66,91.271C303.665,91.271 302.86,92.076 302.86,93.07C302.86,94.065 303.665,94.87 304.66,94.87C305.654,94.87 306.46,94.065 306.46,93.07Z" style="fill:none;stroke:rgb(0,1,255);stroke-width:0.75px;"/>
    </g>
    <g transform="matrix(2.324334,0,0,2.199142,-121.388405,-5.938693)">
        <path d="M246.92,145.41C246.92,144.416 246.114,143.61 245.12,143.61C244.125,143.61 243.319,144.416 243.319,145.41C243.319,146.405 244.125,147.21 245.12,147.21C246.114,147.21 246.92,146.405 246.92,145.41Z" style="fill:rgb(0,1,255);fill-rule:nonzero;"/>
    </g>
    <g transform="matrix(2.324334,0,0,2.199142,-121.388405,-5.938693)">
        <path d="M246.92,145.41C246.92,144.416 246.114,143.61 245.12,143.61C244.125,143.61 243.319,144.416 243.319,145.41C243.319,146.405 244.125,147.21 245.12,147.21C246.114,147.21 246.92,146.405 246.92,145.41Z" style="fill:none;stroke:rgb(0,1,255);stroke-width:0.75px;"/>
    </g>
    <g transform="matrix(2.324334,0,0,2.199142,-121.388405,-5.938693)">
        <path d="M183.7,199.09C183.7,198.096 182.894,197.29 181.9,197.29C180.905,197.29 180.099,198.096 180.099,199.09C180.099,200.085 180.905,200.89 181.9,200.89C182.894,200.89 183.7,200.085 183.7,199.09Z" style="fill:rgb(0,1,255);fill-rule:nonzero;"/>
    </g>
    <g transform="matrix(2.324334,0,0,2.199142,-121.388405,-5.938693)">
        <path d="M183.7,199.09C183.7,198.096 182.894,197.29 181.9,197.29C180.905,197.29 180.099,198.096 180.099,199.09C180.099,200.085 180.905,200.89 181.9,200.89C182.894,200.89 183.7,200.085 183.7,199.09Z" style="fill:none;stroke:rgb(0,1,255);stroke-width:0.75px;"/>
    </g>
    <g transform="matrix(2.324334,0,0,2.199142,-121.388405,-5.938693)">
        <path d="M175.4,208.12C175.4,207.126 174.594,206.32 173.6,206.32C172.605,206.32 171.8,207.126 171.8,208.12C171.8,209.115 172.605,209.92 173.6,209.92C174.594,209.92 175.4,209.115 175.4,208.12Z" style="fill:rgb(0,1,255);fill-rule:nonzero;"/>
    </g>
    <g transform="matrix(2.324334,0,0,2.199142,-121.388405,-5.938693)">
        <path d="M175.4,208.12C175.4,207.126 174.594,206.32 173.6,206.32C172.605,206.32 171.8,207.126 171.8,208.12C171.8,209.115 172.605,209.92 173.6,209.92C174.594,209.92 175.4,209.115 175.4,208.12Z" style="fill:none;stroke:rgb(0,1,255);stroke-width:0.75px;"/>
    </g>
    <g transform="matrix(2.324334,0,0,2.199142,-121.388405,-5.938693)">
        <path d="M190.71,203.11C190.71,202.116 189.904,201.31 188.91,201.31C187.915,201.31 187.11,202.116 187.11,203.11C187.11,204.105 187.915,204.91 188.91,204.91C189.904,204.91 190.71,204.105 190.71,203.11Z" style="fill:rgb(0,1,255);fill-rule:nonzero;"/>
    </g>
    <g transform="matrix(2.324334,0,0,2.199142,-121.388405,-5.938693)">
        <path d="M190.71,203.11C190.71,202.116 189.904,201.31 188.91,201.31C187.915,201.31 187.11,202.116 187.11,203.11C187.11,204.105 187.915,204.91 188.91,204.91C189.904,204.91 190.71,204.105 190.71,203.11Z" style="fill:none;stroke:rgb(0,1,255);stroke-width:0.75px;"/>
    </g>
    <g transform="matrix(2.324334,0,0,2.199142,105.071502,-295.062104)">
        <path d="M124.39,269.47C124.39,268.476 123.584,267.67 122.59,267.67C121.595,267.67 120.789,268.476 120.789,269.47C120.789,270.465 121.595,271.271 122.59,271.271C123.584,271.271 124.39,270.465 124.39,269.47Z" style="fill:rgb(0,1,255);fill-rule:nonzero;"/>
    </g>
    <g transform="matrix(2.324334,0,0,2.199142,105.071502,-295.062104)">
        <path d="M124.39,269.47C124.39,268.476 123.584,267.67 122.59,267.67C121.595,267.67 120.789,268.476 120.789,269.47C120.789,270.465 121.595,271.271 122.59,271.271C123.584,271.271 124.39,270.465 124.39,269.47Z" style="fill:none;stroke:rgb(0,1,255);stroke-width:0.75px;"/>
    </g>
    <g transform="matrix(2.324334,0,0,2.199142,-121.388405,-5.938693)">
        <path d="M162.98,221.64C162.98,220.646 162.174,219.84 161.18,219.84C160.185,219.84 159.379,220.646 159.379,221.64C159.379,222.635 160.185,223.44 161.18,223.44C162.174,223.44 162.98,222.635 162.98,221.64Z" style="fill:rgb(0,1,255);fill-rule:nonzero;"/>
    </g>
    <g transform="matrix(2.324334,0,0,2.199142,-121.388405,-5.938693)">
        <path d="M162.98,221.64C162.98,220.646 162.174,219.84 161.18,219.84C160.185,219.84 159.379,220.646 159.379,221.64C159.379,222.635 160.185,223.44 161.18,223.44C162.174,223.44 162.98,222.635 162.98,221.64Z" style="fill:none;stroke:rgb(0,1,255);stroke-width:0.75px;"/>
    </g>
    <g transform="matrix(2.324334,0,0,2.199142,-121.388405,-5.938693)">
        <path d="M270.86,128.06C270.86,127.066 270.054,126.26 269.06,126.26C268.065,126.26 267.26,127.066 267.26,128.06C267.26,129.055 268.065,129.86 269.06,129.86C270.054,129.86 270.86,129.055 270.86,128.06Z" style="fill:rgb(0,1,255);fill-rule:nonzero;"/>
    </g>
    <g transform="matrix(2.324334,0,0,2.199142,-121.388405,-5.938693)">
        <path d="M270.86,128.06C270.86,127.066 270.054,126.26 269.06,126.26C268.065,126.26 267.26,127.066 267.26,128.06C267.26,129.055 268.065,129.86 269.06,129.86C270.054,129.86 270.86,129.055 270.86,128.06Z" style="fill:none;stroke:rgb(0,1,255);stroke-width:0.75px;"/>
    </g>
    <g transform="matrix(2.324334,0,0,2.199142,-121.388405,-5.938693)">
        <path d="M115.72,204.56C115.72,203.566 114.914,202.76 113.92,202.76C112.925,202.76 112.119,203.566 112.119,204.56C112.119,205.555 112.925,206.36 113.92,206.36C114.914,206.36 115.72,205.555 115.72,204.56Z" style="fill:rgb(0,1,255);fill-rule:nonzero;"/>
    </g>
    <g transform="matrix(2.324334,0,0,2.199142,-121.388405,-5.938693)">
        <path d="M115.72,204.56C115.72,203.566 114.914,202.76 113.92,202.76C112.925,202.76 112.119,203.566 112.119,204.56C112.119,205.555 112.925,206.36 113.92,206.36C114.914,206.36 115.72,205.555 115.72,204.56Z" style="fill:none;stroke:rgb(0,1,255);stroke-width:0.75px;"/>
    </g>
    <g transform="matrix(2.324334,0,0,2.199142,-121.388405,-5.938693)">
        <path d="M91.96,234.51C91.96,233.516 91.154,232.71 90.16,232.71C89.165,232.71 88.36,233.516 88.36,234.51C88.36,235.505 89.165,236.311 90.16,236.311C91.154,236.311 91.96,235.505 91.96,234.51Z" style="fill:rgb(0,1,255);fill-rule:nonzero;"/>
    </g>
    <g transform="matrix(2.324334,0,0,2.199142,-121.388405,-5.938693)">
        <path d="M91.96,234.51C91.96,233.516 91.154,232.71 90.16,232.71C89.165,232.71 88.36,233.516 88.36,234.51C88.36,235.505 89.165,236.311 90.16,236.311C91.154,236.311 91.96,235.505 91.96,234.51Z" style="fill:none;stroke:rgb(0,1,255);stroke-width:0.75px;"/>
    </g>
    <g transform="matrix(2.324334,0,0,2.199142,-121.388405,-5.938693)">
        <path d="M272.47,84.45C272.47,83.456 271.664,82.651 270.67,82.651C269.675,82.651 268.87,83.456 268.87,84.45C268.87,85.445 269.675,86.25 270.67,86.25C271.664,86.25 272.47,85.445 272.47,84.45Z" style="fill:rgb(0,1,255);fill-rule:nonzero;"/>
    </g>
    <g transform="matrix(2.324334,0,0,2.199142,-121.388405,-5.938693)">
        <path d="M272.47,84.45C272.47,83.456 271.664,82.651 270.67,82.651C269.675,82.651 268.87,83.456 268.87,84.45C268.87,85.445 269.675,86.25 270.67,86.25C271.664,86.25 272.47,85.445 272.47,84.45Z" style="fill:none;stroke:rgb(0,1,255);stroke-width:0.75px;"/>
    </g>
    <g transform="matrix(2.324334,0,0,2.199142,-121.388405,-5.938693)">
        <path d="M153.12,185.07C153.12,184.076 152.314,183.27 151.32,183.27C150.325,183.27 149.52,184.076 149.52,185.07C149.52,186.065 150.325,186.871 151.32,186.871C152.314,186.871 153.12,186.065 153.12,185.07Z" style="fill:rgb(0,1,255);fill-rule:nonzero;"/>
    </g>
    <g transform="matrix(2.324334,0,0,2.199142,-121.388405,-5.938693)">
        <path d="M153.12,185.07C153.12,184.076 152.314,183.27 151.32,183.27C150.325,183.27 149.52,184.076 149.52,185.07C149.52,186.065 150.325,186.871 151.32,186.871C152.314,186.871 153.12,186.065 153.12,185.07Z" style="fill:none;stroke:rgb(0,1,255);stroke-width:0.75px;"/>
    </g>
    <g transform="matrix(2.324334,0,0,2.199142,-121.388405,-5.938693)">
        <path d="M246.23,148.13C246.23,147.136 245.424,146.33 244.43,146.33C243.435,146.33 242.629,147.136 242.629,148.13C242.629,149.125 243.435,149.931 244.43,149.931C245.424,149.931 246.23,149.125 246.23,148.13Z" style="fill:rgb(0,1,255);fill-rule:nonzero;"/>
    </g>
    <g transform="matrix(2.324334,0,0,2.199142,-121.388405,-5.938693)">
        <path d="M246.23,148.13C246.23,147.136 245.424,146.33 244.43,146.33C243.435,146.33 242.629,147.136 242.629,148.13C242.629,149.125 243.435,149.931 244.43,149.931C245.424,149.931 246.23,149.125 246.23,148.13Z" style="fill:none;stroke:rgb(0,1,255);stroke-width:0.75px;"/>
    </g>
    <g transform="matrix(2.324334,0,0,2.199142,-121.388405,-5.938693)">
        <path d="M259.629,118.08C259.629,117.086 258.824,116.28 257.829,116.28C256.835,116.28 256.03,117.086 256.03,118.08C256.03,119.075 256.835,119.88 257.829,119.88C258.824,119.88 259.629,119.075 259.629,118.08Z" style="fill:rgb(0,1,255);fill-rule:nonzero;"/>
    </g>
    <g transform="matrix(2.324334,0,0,2.199142,-121.388405,-5.938693)">
        <path d="M259.629,118.08C259.629,117.086 258.824,116.28 257.829,116.28C256.835,116.28 256.03,117.086 256.03,118.08C256.03,119.075 256.835,119.88 257.829,119.88C258.824,119.88 259.629,119.075 259.629,118.08Z" style="fill:none;stroke:rgb(0,1,255);stroke-width:0.75px;"/>
    </g>
    <g transform="matrix(2.324334,0,0,2.199142,-121.388405,-5.938693)">
        <path d="M189.86,164.49C189.86,163.496 189.054,162.69 188.06,162.69C187.065,162.69 186.26,163.496 186.26,164.49C186.26,165.485 187.065,166.291 188.06,166.291C189.054,166.291 189.86,165.485 189.86,164.49Z" style="fill:rgb(0,1,255);fill-rule:nonzero;"/>
    </g>
    <g transform="matrix(2.324334,0,0,2.199142,-121.388405,-5.938693)">
        <path d="M189.86,164.49C189.86,163.496 189.054,162.69 188.06,162.69C187.065,162.69 186.26,163.496 186.26,164.49C186.26,165.485 187.065,166.291 188.06,166.291C189.054,166.291 189.86,165.485 189.86,164.49Z" style="fill:none;stroke:rgb(0,1,255);stroke-width:0.75px;"/>
    </g>
    <g transform="matrix(2.324334,0,0,2.199142,-121.388405,-5.938693)">
        <path d="M115.78,219.24C115.78,218.246 114.974,217.44 113.98,217.44C112.985,217.44 112.18,218.246 112.18,219.24C112.18,220.235 112.985,221.041 113.98,221.041C114.974,221.041 115.78,220.235 115.78,219.24Z" style="fill:rgb(0,1,255);fill-rule:nonzero;"/>
    </g>
    <g transform="matrix(2.324334,0,0,2.199142,-121.388405,-5.938693)">
        <path d="M115.78,219.24C115.78,218.246 114.974,217.44 113.98,217.44C112.985,217.44 112.18,218.246 112.18,219.24C112.18,220.235 112.985,221.041 113.98,221.041C114.974,221.041 115.78,220.235 115.78,219.24Z" style="fill:none;stroke:rgb(0,1,255);stroke-width:0.75px;"/>
    </g>
    <g transform="matrix(2.324334,0,0,2.199142,-121.388405,-5.938693)">
        <path d="M165.01,172.49C165.01,171.496 164.204,170.69 163.21,170.69C162.215,170.69 161.41,171.496 161.41,172.49C161.41,173.485 162.215,174.291 163.21,174.291C164.204,174.291 165.01,173.485 165.01,172.49Z" style="fill:rgb(0,1,255);fill-rule:nonzero;"/>
    </g>
    <g transform="matrix(2.324334,0,0,2.199142,-121.388405,-5.938693)">
        <path d="M165.01,172.49C165.01,171.496 164.204,170.69 163.21,170.69C162.215,170.69 161.41,171.496 161.41,172.49C161.41,173.485 162.215,174.291 163.21,174.291C164.204,174.291 165.01,173.485 165.01,172.49Z" style="fill:none;stroke:rgb(0,1,255);stroke-width:0.75px;"/>
    </g>
    <g transform="matrix(2.324334,0,0,2.199142,-121.388405,-5.938693)">
        <path d="M128.81,226.94C128.81,225.946 128.004,225.14 127.009,225.14C126.015,225.14 125.21,225.946 125.21,226.94C125.21,227.935 126.015,228.741 127.009,228.741C128.004,228.741 128.81,227.935 128.81,226.94Z" style="fill:rgb(0,1,255);fill-rule:nonzero;"/>
    </g>
    <g transform="matrix(2.324334,0,0,2.199142,-121.388405,-5.938693)">
        <path d="M128.81,226.94C128.81,225.946 128.004,225.14 127.009,225.14C126.015,225.14 125.21,225.946 125.21,226.94C125.21,227.935 126.015,228.741 127.009,228.741C128.004,228.741 128.81,227.935 128.81,226.94Z" style="fill:none;stroke:rgb(0,1,255);stroke-width:0.75px;"/>
    </g>
    <g transform="matrix(2.324334,0,0,2.199142,-121.388405,-5.938693)">
        <path d="M188.98,192.34C188.98,191.346 188.174,190.54 187.18,190.54C186.185,190.54 185.379,191.346 185.379,192.34C185.379,193.335 186.185,194.14 187.18,194.14C188.174,194.14 188.98,193.335 188.98,192.34Z" style="fill:rgb(0,1,255);fill-rule:nonzero;"/>
    </g>
    <g transform="matrix(2.324334,0,0,2.199142,-121.388405,-5.938693)">
        <path d="M188.98,192.34C188.98,191.346 188.174,190.54 187.18,190.54C186.185,190.54 185.379,191.346 185.379,192.34C185.379,193.335 186.185,194.14 187.18,194.14C188.174,194.14 188.98,193.335 188.98,192.34Z" style="fill:none;stroke:rgb(0,1,255);stroke-width:0.75px;"/>
    </g>
    <g transform="matrix(2.324334,0,0,2.199142,-121.388405,-5.938693)">
        <path d="M253.64,144.76C253.64,143.766 252.834,142.96 251.84,142.96C250.845,142.96 250.04,143.766 250.04,144.76C250.04,145.755 250.845,146.56 251.84,146.56C252.834,146.56 253.64,145.755 253.64,144.76Z" style="fill:rgb(0,1,255);fill-rule:nonzero;"/>
    </g>
    <g transform="matrix(2.324334,0,0,2.199142,-121.388405,-5.938693)">
        <path d="M253.64,144.76C253.64,143.766 252.834,142.96 251.84,142.96C250.845,142.96 250.04,143.766 250.04,144.76C250.04,145.755 250.845,146.56 251.84,146.56C252.834,146.56 253.64,145.755 253.64,144.76Z" style="fill:none;stroke:rgb(0,1,255);stroke-width:0.75px;"/>
    </g>
    <g transform="matrix(2.324334,0,0,2.199142,-121.388405,-5.938693)">
        <path d="M170.58,189.82C170.58,188.826 169.774,188.02 168.78,188.02C167.785,188.02 166.98,188.826 166.98,189.82C166.98,190.815 167.785,191.621 168.78,191.621C169.774,191.621 170.58,190.815 170.58,189.82Z" style="fill:rgb(0,1,255);fill-rule:nonzero;"/>
    </g>
    <g transform="matrix(2.324334,0,0,2.199142,-121.388405,-5.938693)">
        <path d="M170.58,189.82C170.58,188.826 169.774,188.02 168.78,188.02C167.785,188.02 166.98,188.826 166.98,189.82C166.98,190.815 167.785,191.621 168.78,191.621C169.774,191.621 170.58,190.815 170.58,189.82Z" style="fill:none;stroke:rgb(0,1,255);stroke-width:0.75px;"/>
    </g>
    <g transform="matrix(2.324334,0,0,2.199142,-121.388405,-5.938693)">
        <path d="M276.53,154.76C276.53,153.766 275.724,152.96 274.73,152.96C273.735,152.96 272.93,153.766 272.93,154.76C272.93,155.755 273.735,156.56 274.73,156.56C275.724,156.56 276.53,155.755 276.53,154.76Z" style="fill:rgb(0,1,255);fill-rule:nonzero;"/>
    </g>
    <g transform="matrix(2.324334,0,0,2.199142,-121.388405,-5.938693)">
        <path d="M276.53,154.76C276.53,153.766 275.724,152.96 274.73,152.96C273.735,152.96 272.93,153.766 272.93,154.76C272.93,155.755 273.735,156.56 274.73,156.56C275.724,156.56 276.53,155.755 276.53,154.76Z" style="fill:none;stroke:rgb(0,1,255);stroke-width:0.75px;"/>
    </g>
    <g transform="matrix(2.324334,0,0,2.199142,-121.388405,-5.938693)">
        <path d="M245.31,144.56C245.31,143.566 244.504,142.76 243.51,142.76C242.515,142.76 241.709,143.566 241.709,144.56C241.709,145.555 242.515,146.36 243.51,146.36C244.504,146.36 245.31,145.555 245.31,144.56Z" style="fill:rgb(0,1,255);fill-rule:nonzero;"/>
    </g>
    <g transform="matrix(2.324334,0,0,2.199142,-121.388405,-5.938693)">
        <path d="M245.31,144.56C245.31,143.566 244.504,142.76 243.51,142.76C242.515,142.76 241.709,143.566 241.709,144.56C241.709,145.555 242.515,146.36 243.51,146.36C244.504,146.36 245.31,145.555 245.31,144.56Z" style="fill:none;stroke:rgb(0,1,255);stroke-width:0.75px;"/>
    </g>
    <g transform="matrix(2.324334,0,0,2.199142,-121.388405,-5.938693)">
        <path d="M301.97,123.47C301.97,122.476 301.164,121.67 300.17,121.67C299.175,121.67 298.37,122.476 298.37,123.47C298.37,124.465 299.175,125.27 300.17,125.27C301.164,125.27 301.97,124.465 301.97,123.47Z" style="fill:rgb(0,1,255);fill-rule:nonzero;"/>
    </g>
    <g transform="matrix(2.324334,0,0,2.199142,-121.388405,-5.938693)">
        <path d="M301.97,123.47C301.97,122.476 301.164,121.67 300.17,121.67C299.175,121.67 298.37,122.476 298.37,123.47C298.37,124.465 299.175,125.27 300.17,125.27C301.164,125.27 301.97,124.465 301.97,123.47Z" style="fill:none;stroke:rgb(0,1,255);stroke-width:0.75px;"/>
    </g>
    <g transform="matrix(2.324334,0,0,2.199142,-121.388405,-5.938693)">
        <path d="M293.69,147.15C293.69,146.156 292.884,145.35 291.89,145.35C290.895,145.35 290.09,146.156 290.09,147.15C290.09,148.145 290.895,148.95 291.89,148.95C292.884,148.95 293.69,148.145 293.69,147.15Z" style="fill:rgb(0,1,255);fill-rule:nonzero;"/>
    </g>
    <g transform="matrix(2.324334,0,0,2.199142,-121.388405,-5.938693)">
        <path d="M293.69,147.15C293.69,146.156 292.884,145.35 291.89,145.35C290.895,145.35 290.09,146.156 290.09,147.15C290.09,148.145 290.895,148.95 291.89,148.95C292.884,148.95 293.69,148.145 293.69,147.15Z" style="fill:none;stroke:rgb(0,1,255);stroke-width:0.75px;"/>
    </g>
    <g transform="matrix(2.324334,0,0,2.199142,-121.388405,-5.938693)">
        <path d="M165.55,207.66C165.55,206.666 164.744,205.86 163.75,205.86C162.755,205.86 161.95,206.666 161.95,207.66C161.95,208.655 162.755,209.46 163.75,209.46C164.744,209.46 165.55,208.655 165.55,207.66Z" style="fill:rgb(0,1,255);fill-rule:nonzero;"/>
    </g>
    <g transform="matrix(2.324334,0,0,2.199142,-121.388405,-5.938693)">
        <path d="M165.55,207.66C165.55,206.666 164.744,205.86 163.75,205.86C162.755,205.86 161.95,206.666 161.95,207.66C161.95,208.655 162.755,209.46 163.75,209.46C164.744,209.46 165.55,208.655 165.55,207.66Z" style="fill:none;stroke:rgb(0,1,255);stroke-width:0.75px;"/>
    </g>
    <g transform="matrix(2.324334,0,0,2.199142,-121.388405,-5.938693)">
        <path d="M182.52,168.9C182.52,167.906 181.714,167.1 180.72,167.1C179.725,167.1 178.92,167.906 178.92,168.9C178.92,169.895 179.725,170.7 180.72,170.7C181.714,170.7 182.52,169.895 182.52,168.9Z" style="fill:rgb(0,1,255);fill-rule:nonzero;"/>
    </g>
    <g transform="matrix(2.324334,0,0,2.199142,-121.388405,-5.938693)">
        <path d="M182.52,168.9C182.52,167.906 181.714,167.1 180.72,167.1C179.725,167.1 178.92,167.906 178.92,168.9C178.92,169.895 179.725,170.7 180.72,170.7C181.714,170.7 182.52,169.895 182.52,168.9Z" style="fill:none;stroke:rgb(0,1,255);stroke-width:0.75px;"/>
    </g>
    <g transform="matrix(2.324334,0,0,2.199142,-121.388405,-5.938693)">
        <path d="M181,129.48C181,128.486 180.194,127.68 179.2,127.68C178.205,127.68 177.4,128.486 177.4,129.48C177.4,130.475 178.205,131.28 179.2,131.28C180.194,131.28 181,130.475 181,129.48Z" style="fill:rgb(0,1,255);fill-rule:nonzero;"/>
    </g>
    <g transform="matrix(2.324334,0,0,2.199142,-121.388405,-5.938693)">
        <path d="M181,129.48C181,128.486 180.194,127.68 179.2,127.68C178.205,127.68 177.4,128.486 177.4,129.48C177.4,130.475 178.205,131.28 179.2,131.28C180.194,131.28 181,130.475 181,129.48Z" style="fill:none;stroke:rgb(0,1,255);stroke-width:0.75px;"/>
    </g>
    <g transform="matrix(2.324334,0,0,2.199142,-121.388405,-5.938693)">
        <path d="M195.92,164.49C195.92,163.496 195.114,162.69 194.12,162.69C193.125,162.69 192.319,163.496 192.319,164.49C192.319,165.485 193.125,166.291 194.12,166.291C195.114,166.291 195.92,165.485 195.92,164.49Z" style="fill:rgb(0,1,255);fill-rule:nonzero;"/>
    </g>
    <g transform="matrix(2.324334,0,0,2.199142,-121.388405,-5.938693)">
        <path d="M195.92,164.49C195.92,163.496 195.114,162.69 194.12,162.69C193.125,162.69 192.319,163.496 192.319,164.49C192.319,165.485 193.125,166.291 194.12,166.291C195.114,166.291 195.92,165.485 195.92,164.49Z" style="fill:none;stroke:rgb(0,1,255);stroke-width:0.75px;"/>
    </g>
    <g transform="matrix(2.324334,0,0,2.199142,-121.388405,-5.938693)">
        <path d="M285.169,103.5C285.169,102.506 284.364,101.7 283.37,101.7C282.375,101.7 281.57,102.506 281.57,103.5C281.57,104.495 282.375,105.3 283.37,105.3C284.364,105.3 285.169,104.495 285.169,103.5Z" style="fill:rgb(0,1,255);fill-rule:nonzero;"/>
    </g>
    <g transform="matrix(2.324334,0,0,2.199142,-121.388405,-5.938693)">
        <path d="M285.169,103.5C285.169,102.506 284.364,101.7 283.37,101.7C282.375,101.7 281.57,102.506 281.57,103.5C281.57,104.495 282.375,105.3 283.37,105.3C284.364,105.3 285.169,104.495 285.169,103.5Z" style="fill:none;stroke:rgb(0,1,255);stroke-width:0.75px;"/>
    </g>
    <g transform="matrix(2.324334,0,0,2.199142,-121.388405,-5.938693)">
        <path d="M100.23,215.37C100.23,214.376 99.424,213.57 98.43,213.57C97.435,213.57 96.63,214.376 96.63,215.37C96.63,216.365 97.435,217.17 98.43,217.17C99.424,217.17 100.23,216.365 100.23,215.37Z" style="fill:rgb(0,1,255);fill-rule:nonzero;"/>
    </g>
    <g transform="matrix(2.324334,0,0,2.199142,-121.388405,-5.938693)">
        <path d="M100.23,215.37C100.23,214.376 99.424,213.57 98.43,213.57C97.435,213.57 96.63,214.376 96.63,215.37C96.63,216.365 97.435,217.17 98.43,217.17C99.424,217.17 100.23,216.365 100.23,215.37Z" style="fill:none;stroke:rgb(0,1,255);stroke-width:0.75px;"/>
    </g>
    <g transform="matrix(2.324334,0,0,2.199142,-121.388405,-5.938693)">
        <path d="M243.5,115.95C243.5,114.956 242.694,114.15 241.7,114.15C240.705,114.15 239.9,114.956 239.9,115.95C239.9,116.945 240.705,117.75 241.7,117.75C242.694,117.75 243.5,116.945 243.5,115.95Z" style="fill:rgb(0,1,255);fill-rule:nonzero;"/>
    </g>
    <g transform="matrix(2.324334,0,0,2.199142,-121.388405,-5.938693)">
        <path d="M243.5,115.95C243.5,114.956 242.694,114.15 241.7,114.15C240.705,114.15 239.9,114.956 239.9,115.95C239.9,116.945 240.705,117.75 241.7,117.75C242.694,117.75 243.5,116.945 243.5,115.95Z" style="fill:none;stroke:rgb(0,1,255);stroke-width:0.75px;"/>
    </g>
    <g transform="matrix(2.324334,0,0,2.199142,-121.388405,-5.938693)">
        <path d="M282.27,111.46C282.27,110.466 281.464,109.66 280.47,109.66C279.475,109.66 278.67,110.466 278.67,111.46C278.67,112.455 279.475,113.261 280.47,113.261C281.464,113.261 282.27,112.455 282.27,111.46Z" style="fill:rgb(0,1,255);fill-rule:nonzero;"/>
    </g>
    <g transform="matrix(2.324334,0,0,2.199142,-121.388405,-5.938693)">
        <path d="M282.27,111.46C282.27,110.466 281.464,109.66 280.47,109.66C279.475,109.66 278.67,110.466 278.67,111.46C278.67,112.455 279.475,113.261 280.47,113.261C281.464,113.261 282.27,112.455 282.27,111.46Z" style="fill:none;stroke:rgb(0,1,255);stroke-width:0.75px;"/>
    </g>
    <g transform="matrix(2.324334,0,0,2.199142,-121.388405,-5.938693)">
        <path d="M228.25,191.82C228.25,190.826 227.444,190.02 226.45,190.02C225.455,190.02 224.65,190.826 224.65,191.82C224.65,192.815 225.455,193.621 226.45,193.621C227.444,193.621 228.25,192.815 228.25,191.82Z" style="fill:rgb(0,1,255);fill-rule:nonzero;"/>
    </g>
    <g transform="matrix(2.324334,0,0,2.199142,-121.388405,-5.938693)">
        <path d="M228.25,191.82C228.25,190.826 227.444,190.02 226.45,190.02C225.455,190.02 224.65,190.826 224.65,191.82C224.65,192.815 225.455,193.621 226.45,193.621C227.444,193.621 228.25,192.815 228.25,191.82Z" style="fill:none;stroke:rgb(0,1,255);stroke-width:0.75px;"/>
    </g>
    <g transform="matrix(2.324334,0,0,2.199142,-141.34166,15.703072)">
        <path d="M317.199,68.17C317.199,67.176 316.394,66.371 315.4,66.371C314.405,66.371 313.6,67.176 313.6,68.17C313.6,69.165 314.405,69.97 315.4,69.97C316.394,69.97 317.199,69.165 317.199,68.17Z" style="fill:rgb(0,1,255);fill-rule:nonzero;"/>
    </g>
    <g transform="matrix(2.324334,0,0,2.199142,-141.34166,15.703072)">
        <path d="M317.199,68.17C317.199,67.176 316.394,66.371 315.4,66.371C314.405,66.371 313.6,67.176 313.6,68.17C313.6,69.165 314.405,69.97 315.4,69.97C316.394,69.97 317.199,69.165 317.199,68.17Z" style="fill:none;stroke:rgb(0,1,255);stroke-width:0.75px;"/>
    </g>
    <g transform="matrix(2.324334,0,0,2.199142,-121.388405,-5.938693)">
        <path d="M269.65,115.97C269.65,114.976 268.844,114.17 267.85,114.17C266.855,114.17 266.05,114.976 266.05,115.97C266.05,116.965 266.855,117.77 267.85,117.77C268.844,117.77 269.65,116.965 269.65,115.97Z" style="fill:rgb(0,1,255);fill-rule:nonzero;"/>
    </g>
    <g transform="matrix(2.324334,0,0,2.199142,-121.388405,-5.938693)">
        <path d="M269.65,115.97C269.65,114.976 268.844,114.17 267.85,114.17C266.855,114.17 266.05,114.976 266.05,115.97C266.05,116.965 266.855,117.77 267.85,117.77C268.844,117.77 269.65,116.965 269.65,115.97Z" style="fill:none;stroke:rgb(0,1,255);stroke-width:0.75px;"/>
    </g>
    <g transform="matrix(2.324334,0,0,2.199142,-121.388405,-5.938693)">
        <path d="M198.28,138.84C198.28,137.846 197.474,137.04 196.48,137.04C195.485,137.04 194.68,137.846 194.68,138.84C194.68,139.835 195.485,140.64 196.48,140.64C197.474,140.64 198.28,139.835 198.28,138.84Z" style="fill:rgb(0,1,255);fill-rule:nonzero;"/>
    </g>
    <g transform="matrix(2.324334,0,0,2.199142,-121.388405,-5.938693)">
        <path d="M198.28,138.84C198.28,137.846 197.474,137.04 196.48,137.04C195.485,137.04 194.68,137.846 194.68,138.84C194.68,139.835 195.485,140.64 196.48,140.64C197.474,140.64 198.28,139.835 198.28,138.84Z" style="fill:none;stroke:rgb(0,1,255);stroke-width:0.75px;"/>
    </g>
    <g transform="matrix(2.324334,0,0,2.199142,-121.388405,-5.938693)">
        <path d="M248.77,152.71C248.77,151.716 247.964,150.91 246.97,150.91C245.975,150.91 245.17,151.716 245.17,152.71C245.17,153.705 245.975,154.511 246.97,154.511C247.964,154.511 248.77,153.705 248.77,152.71Z" style="fill:rgb(0,1,255);fill-rule:nonzero;"/>
    </g>
    <g transform="matrix(2.324334,0,0,2.199142,-121.388405,-5.938693)">
        <path d="M248.77,152.71C248.77,151.716 247.964,150.91 246.97,150.91C245.975,150.91 245.17,151.716 245.17,152.71C245.17,153.705 245.975,154.511 246.97,154.511C247.964,154.511 248.77,153.705 248.77,152.71Z" style="fill:none;stroke:rgb(0,1,255);stroke-width:0.75px;"/>
    </g>
    <g transform="matrix(2.324334,0,0,2.199142,-121.388405,-5.938693)">
        <path d="M168.93,197.84C168.93,196.846 168.124,196.04 167.13,196.04C166.135,196.04 165.33,196.846 165.33,197.84C165.33,198.835 166.135,199.64 167.13,199.64C168.124,199.64 168.93,198.835 168.93,197.84Z" style="fill:rgb(0,1,255);fill-rule:nonzero;"/>
    </g>
    <g transform="matrix(2.324334,0,0,2.199142,-121.388405,-5.938693)">
        <path d="M168.93,197.84C168.93,196.846 168.124,196.04 167.13,196.04C166.135,196.04 165.33,196.846 165.33,197.84C165.33,198.835 166.135,199.64 167.13,199.64C168.124,199.64 168.93,198.835 168.93,197.84Z" style="fill:none;stroke:rgb(0,1,255);stroke-width:0.75px;"/>
    </g>
    <g transform="matrix(2.324334,0,0,2.199142,-121.388405,-5.938693)">
        <path d="M192.05,145.59C192.05,144.596 191.244,143.79 190.25,143.79C189.255,143.79 188.45,144.596 188.45,145.59C188.45,146.585 189.255,147.39 190.25,147.39C191.244,147.39 192.05,146.585 192.05,145.59Z" style="fill:rgb(0,1,255);fill-rule:nonzero;"/>
    </g>
    <g transform="matrix(2.324334,0,0,2.199142,-121.388405,-5.938693)">
        <path d="M192.05,145.59C192.05,144.596 191.244,143.79 190.25,143.79C189.255,143.79 188.45,144.596 188.45,145.59C188.45,146.585 189.255,147.39 190.25,147.39C191.244,147.39 192.05,146.585 192.05,145.59Z" style="fill:none;stroke:rgb(0,1,255);stroke-width:0.75px;"/>
    </g>
    <g transform="matrix(2.324334,0,0,2.199142,-121.388405,-5.938693)">
        <path d="M167.55,177.33C167.55,176.336 166.744,175.53 165.75,175.53C164.755,175.53 163.95,176.336 163.95,177.33C163.95,178.325 164.755,179.13 165.75,179.13C166.744,179.13 167.55,178.325 167.55,177.33Z" style="fill:rgb(0,1,255);fill-rule:nonzero;"/>
    </g>
    <g transform="matrix(2.324334,0,0,2.199142,-121.388405,-5.938693)">
        <path d="M167.55,177.33C167.55,176.336 166.744,175.53 165.75,175.53C164.755,175.53 163.95,176.336 163.95,177.33C163.95,178.325 164.755,179.13 165.75,179.13C166.744,179.13 167.55,178.325 167.55,177.33Z" style="fill:none;stroke:rgb(0,1,255);stroke-width:0.75px;"/>
    </g>
    <g transform="matrix(2.324334,0,0,2.199142,-121.388405,-5.938693)">
        <path d="M94.49,245.36C94.49,244.366 93.684,243.56 92.69,243.56C91.695,243.56 90.89,244.366 90.89,245.36C90.89,246.355 91.695,247.16 92.69,247.16C93.684,247.16 94.49,246.355 94.49,245.36Z" style="fill:rgb(0,1,255);fill-rule:nonzero;"/>
    </g>
    <g transform="matrix(2.324334,0,0,2.199142,-121.388405,-5.938693)">
        <path d="M94.49,245.36C94.49,244.366 93.684,243.56 92.69,243.56C91.695,243.56 90.89,244.366 90.89,245.36C90.89,246.355 91.695,247.16 92.69,247.16C93.684,247.16 94.49,246.355 94.49,245.36Z" style="fill:none;stroke:rgb(0,1,255);stroke-width:0.75px;"/>
    </g>
    <g transform="matrix(2.324334,0,0,2.199142,-121.388405,-5.938693)">
        <path d="M241.63,141.6C241.63,140.606 240.824,139.8 239.83,139.8C238.835,139.8 238.03,140.606 238.03,141.6C238.03,142.595 238.835,143.401 239.83,143.401C240.824,143.401 241.63,142.595 241.63,141.6Z" style="fill:rgb(0,1,255);fill-rule:nonzero;"/>
    </g>
    <g transform="matrix(2.324334,0,0,2.199142,-121.388405,-5.938693)">
        <path d="M241.63,141.6C241.63,140.606 240.824,139.8 239.83,139.8C238.835,139.8 238.03,140.606 238.03,141.6C238.03,142.595 238.835,143.401 239.83,143.401C240.824,143.401 241.63,142.595 241.63,141.6Z" style="fill:none;stroke:rgb(0,1,255);stroke-width:0.75px;"/>
    </g>
    <g transform="matrix(2.324334,0,0,2.199142,-121.388405,-5.938693)">
        <path d="M249.15,164.76C249.15,163.766 248.344,162.96 247.35,162.96C246.355,162.96 245.55,163.766 245.55,164.76C245.55,165.755 246.355,166.56 247.35,166.56C248.344,166.56 249.15,165.755 249.15,164.76Z" style="fill:rgb(0,1,255);fill-rule:nonzero;"/>
    </g>
    <g transform="matrix(2.324334,0,0,2.199142,-121.388405,-5.938693)">
        <path d="M249.15,164.76C249.15,163.766 248.344,162.96 247.35,162.96C246.355,162.96 245.55,163.766 245.55,164.76C245.55,165.755 246.355,166.56 247.35,166.56C248.344,166.56 249.15,165.755 249.15,164.76Z" style="fill:none;stroke:rgb(0,1,255);stroke-width:0.75px;"/>
    </g>
    <g transform="matrix(2.324334,0,0,2.199142,-141.34166,15.703072)">
        <path d="M304.97,67.13C304.97,66.136 304.164,65.331 303.17,65.331C302.175,65.331 301.37,66.136 301.37,67.13C301.37,68.125 302.175,68.93 303.17,68.93C304.164,68.93 304.97,68.125 304.97,67.13Z" style="fill:rgb(0,1,255);fill-rule:nonzero;"/>
    </g>
    <g transform="matrix(2.324334,0,0,2.199142,-141.34166,15.703072)">
        <path d="M304.97,67.13C304.97,66.136 304.164,65.331 303.17,65.331C302.175,65.331 301.37,66.136 301.37,67.13C301.37,68.125 302.175,68.93 303.17,68.93C304.164,68.93 304.97,68.125 304.97,67.13Z" style="fill:none;stroke:rgb(0,1,255);stroke-width:0.75px;"/>
    </g>
    <g transform="matrix(2.324334,0,0,2.199142,-121.388405,-5.938693)">
        <path d="M136.83,209.61C136.83,208.616 136.024,207.81 135.03,207.81C134.035,207.81 133.23,208.616 133.23,209.61C133.23,210.605 134.035,211.41 135.03,211.41C136.024,211.41 136.83,210.605 136.83,209.61Z" style="fill:rgb(0,1,255);fill-rule:nonzero;"/>
    </g>
    <g transform="matrix(2.324334,0,0,2.199142,-121.388405,-5.938693)">
        <path d="M136.83,209.61C136.83,208.616 136.024,207.81 135.03,207.81C134.035,207.81 133.23,208.616 133.23,209.61C133.23,210.605 134.035,211.41 135.03,211.41C136.024,211.41 136.83,210.605 136.83,209.61Z" style="fill:none;stroke:rgb(0,1,255);stroke-width:0.75px;"/>
    </g>
    <g transform="matrix(2.324334,0,0,2.199142,-121.388405,-5.938693)">
        <path d="M150.9,186.37C150.9,185.376 150.094,184.57 149.1,184.57C148.105,184.57 147.3,185.376 147.3,186.37C147.3,187.365 148.105,188.17 149.1,188.17C150.094,188.17 150.9,187.365 150.9,186.37Z" style="fill:rgb(0,1,255);fill-rule:nonzero;"/>
    </g>
    <g transform="matrix(2.324334,0,0,2.199142,-121.388405,-5.938693)">
        <path d="M150.9,186.37C150.9,185.376 150.094,184.57 149.1,184.57C148.105,184.57 147.3,185.376 147.3,186.37C147.3,187.365 148.105,188.17 149.1,188.17C150.094,188.17 150.9,187.365 150.9,186.37Z" style="fill:none;stroke:rgb(0,1,255);stroke-width:0.75px;"/>
    </g>
    <g transform="matrix(2.324334,0,0,2.199142,-121.388405,-5.938693)">
        <path d="M211.66,202.47C211.66,201.476 210.854,200.67 209.86,200.67C208.865,200.67 208.06,201.476 208.06,202.47C208.06,203.465 208.865,204.27 209.86,204.27C210.854,204.27 211.66,203.465 211.66,202.47Z" style="fill:rgb(189,189,189);fill-rule:nonzero;"/>
    </g>
    <g transform="matrix(2.324334,0,0,2.199142,-121.388405,-5.938693)">
        <path d="M211.66,202.47C211.66,201.476 210.854,200.67 209.86,200.67C208.865,200.67 208.06,201.476 208.06,202.47C208.06,203.465 208.865,204.27 209.86,204.27C210.854,204.27 211.66,203.465 211.66,202.47Z" style="fill:none;stroke:rgb(189,189,189);stroke-width:0.75px;"/>
    </g>
    <g transform="matrix(2.324334,0,0,2.199142,-121.388405,-5.938693)">
        <path d="M247.71,126.97C247.71,125.976 246.904,125.17 245.91,125.17C244.915,125.17 244.11,125.976 244.11,126.97C244.11,127.965 244.915,128.77 245.91,128.77C246.904,128.77 247.71,127.965 247.71,126.97Z" style="fill:rgb(189,189,189);fill-rule:nonzero;"/>
    </g>
    <g transform="matrix(2.324334,0,0,2.199142,-121.388405,-5.938693)">
        <path d="M247.71,126.97C247.71,125.976 246.904,125.17 245.91,125.17C244.915,125.17 244.11,125.976 244.11,126.97C244.11,127.965 244.915,128.77 245.91,128.77C246.904,128.77 247.71,127.965 247.71,126.97Z" style="fill:none;stroke:rgb(189,189,189);stroke-width:0.75px;"/>
    </g>
    <g transform="matrix(2.324334,0,0,2.199142,-121.388405,-5.938693)">
        <path d="M274.659,143.11C274.659,142.116 273.854,141.31 272.86,141.31C271.865,141.31 271.06,142.116 271.06,143.11C271.06,144.105 271.865,144.91 272.86,144.91C273.854,144.91 274.659,144.105 274.659,143.11Z" style="fill:rgb(189,189,189);fill-rule:nonzero;"/>
    </g>
    <g transform="matrix(2.324334,0,0,2.199142,-121.388405,-5.938693)">
        <path d="M274.659,143.11C274.659,142.116 273.854,141.31 272.86,141.31C271.865,141.31 271.06,142.116 271.06,143.11C271.06,144.105 271.865,144.91 272.86,144.91C273.854,144.91 274.659,144.105 274.659,143.11Z" style="fill:none;stroke:rgb(189,189,189);stroke-width:0.75px;"/>
    </g>
    <g transform="matrix(2.324334,0,0,2.199142,-121.388405,-5.938693)">
        <path d="M307.9,93.07C307.9,92.076 307.094,91.271 306.1,91.271C305.105,91.271 304.3,92.076 304.3,93.07C304.3,94.065 305.105,94.87 306.1,94.87C307.094,94.87 307.9,94.065 307.9,93.07Z" style="fill:rgb(189,189,189);fill-rule:nonzero;"/>
    </g>
    <g transform="matrix(2.324334,0,0,2.199142,-121.388405,-5.938693)">
        <path d="M307.9,93.07C307.9,92.076 307.094,91.271 306.1,91.271C305.105,91.271 304.3,92.076 304.3,93.07C304.3,94.065 305.105,94.87 306.1,94.87C307.094,94.87 307.9,94.065 307.9,93.07Z" style="fill:none;stroke:rgb(189,189,189);stroke-width:0.75px;"/>
    </g>
    <g transform="matrix(2.324334,0,0,2.199142,-121.388405,-5.938693)">
        <path d="M248.72,145.41C248.72,144.416 247.914,143.61 246.92,143.61C245.925,143.61 245.12,144.416 245.12,145.41C245.12,146.405 245.925,147.21 246.92,147.21C247.914,147.21 248.72,146.405 248.72,145.41Z" style="fill:rgb(189,189,189);fill-rule:nonzero;"/>
    </g>
    <g transform="matrix(2.324334,0,0,2.199142,-121.388405,-5.938693)">
        <path d="M248.72,145.41C248.72,144.416 247.914,143.61 246.92,143.61C245.925,143.61 245.12,144.416 245.12,145.41C245.12,146.405 245.925,147.21 246.92,147.21C247.914,147.21 248.72,146.405 248.72,145.41Z" style="fill:none;stroke:rgb(189,189,189);stroke-width:0.75px;"/>
    </g>
    <g transform="matrix(2.324334,0,0,2.199142,-121.388405,-5.938693)">
        <path d="M177.59,199.09C177.59,198.096 176.784,197.29 175.79,197.29C174.795,197.29 173.989,198.096 173.989,199.09C173.989,200.085 174.795,200.89 175.79,200.89C176.784,200.89 177.59,200.085 177.59,199.09Z" style="fill:rgb(189,189,189);fill-rule:nonzero;"/>
    </g>
    <g transform="matrix(2.324334,0,0,2.199142,-121.388405,-5.938693)">
        <path d="M177.59,199.09C177.59,198.096 176.784,197.29 175.79,197.29C174.795,197.29 173.989,198.096 173.989,199.09C173.989,200.085 174.795,200.89 175.79,200.89C176.784,200.89 177.59,200.085 177.59,199.09Z" style="fill:none;stroke:rgb(189,189,189);stroke-width:0.75px;"/>
    </g>
    <g transform="matrix(2.324334,0,0,2.199142,-121.388405,-5.938693)">
        <path d="M117.48,208.12C117.48,207.126 116.674,206.32 115.68,206.32C114.685,206.32 113.88,207.126 113.88,208.12C113.88,209.115 114.685,209.92 115.68,209.92C116.674,209.92 117.48,209.115 117.48,208.12Z" style="fill:rgb(189,189,189);fill-rule:nonzero;"/>
    </g>
    <g transform="matrix(2.324334,0,0,2.199142,-121.388405,-5.938693)">
        <path d="M117.48,208.12C117.48,207.126 116.674,206.32 115.68,206.32C114.685,206.32 113.88,207.126 113.88,208.12C113.88,209.115 114.685,209.92 115.68,209.92C116.674,209.92 117.48,209.115 117.48,208.12Z" style="fill:none;stroke:rgb(189,189,189);stroke-width:0.75px;"/>
    </g>
    <g transform="matrix(2.324334,0,0,2.199142,-121.388405,-5.938693)">
        <path d="M202.15,203.11C202.15,202.116 201.344,201.31 200.35,201.31C199.355,201.31 198.55,202.116 198.55,203.11C198.55,204.105 199.355,204.91 200.35,204.91C201.344,204.91 202.15,204.105 202.15,203.11Z" style="fill:rgb(189,189,189);fill-rule:nonzero;"/>
    </g>
    <g transform="matrix(2.324334,0,0,2.199142,-121.388405,-5.938693)">
        <path d="M202.15,203.11C202.15,202.116 201.344,201.31 200.35,201.31C199.355,201.31 198.55,202.116 198.55,203.11C198.55,204.105 199.355,204.91 200.35,204.91C201.344,204.91 202.15,204.105 202.15,203.11Z" style="fill:none;stroke:rgb(189,189,189);stroke-width:0.75px;"/>
    </g>
    <g transform="matrix(2.324334,0,0,2.199142,105.071502,-295.062104)">
        <path d="M115.7,269.47C115.7,268.476 114.894,267.67 113.9,267.67C112.905,267.67 112.1,268.476 112.1,269.47C112.1,270.465 112.905,271.271 113.9,271.271C114.894,271.271 115.7,270.465 115.7,269.47Z" style="fill:rgb(189,189,189);fill-rule:nonzero;"/>
    </g>
    <g transform="matrix(2.324334,0,0,2.199142,105.071502,-295.062104)">
        <path d="M115.7,269.47C115.7,268.476 114.894,267.67 113.9,267.67C112.905,267.67 112.1,268.476 112.1,269.47C112.1,270.465 112.905,271.271 113.9,271.271C114.894,271.271 115.7,270.465 115.7,269.47Z" style="fill:none;stroke:rgb(189,189,189);stroke-width:0.75px;"/>
    </g>
    <g transform="matrix(2.324334,0,0,2.199142,-121.388405,-5.938693)">
        <path d="M153.84,221.64C153.84,220.646 153.034,219.84 152.04,219.84C151.045,219.84 150.239,220.646 150.239,221.64C150.239,222.635 151.045,223.44 152.04,223.44C153.034,223.44 153.84,222.635 153.84,221.64Z" style="fill:rgb(189,189,189);fill-rule:nonzero;"/>
    </g>
    <g transform="matrix(2.324334,0,0,2.199142,-121.388405,-5.938693)">
        <path d="M153.84,221.64C153.84,220.646 153.034,219.84 152.04,219.84C151.045,219.84 150.239,220.646 150.239,221.64C150.239,222.635 151.045,223.44 152.04,223.44C153.034,223.44 153.84,222.635 153.84,221.64Z" style="fill:none;stroke:rgb(189,189,189);stroke-width:0.75px;"/>
    </g>
    <g transform="matrix(2.324334,0,0,2.199142,-121.388405,-5.938693)">
        <path d="M273.53,128.06C273.53,127.066 272.724,126.26 271.73,126.26C270.735,126.26 269.93,127.066 269.93,128.06C269.93,129.055 270.735,129.86 271.73,129.86C272.724,129.86 273.53,129.055 273.53,128.06Z" style="fill:rgb(189,189,189);fill-rule:nonzero;"/>
    </g>
    <g transform="matrix(2.324334,0,0,2.199142,-121.388405,-5.938693)">
        <path d="M273.53,128.06C273.53,127.066 272.724,126.26 271.73,126.26C270.735,126.26 269.93,127.066 269.93,128.06C269.93,129.055 270.735,129.86 271.73,129.86C272.724,129.86 273.53,129.055 273.53,128.06Z" style="fill:none;stroke:rgb(189,189,189);stroke-width:0.75px;"/>
    </g>
    <g transform="matrix(2.324334,0,0,2.199142,-121.388405,-5.938693)">
        <path d="M80.73,204.56C80.73,203.566 79.924,202.76 78.93,202.76C77.935,202.76 77.13,203.566 77.13,204.56C77.13,205.555 77.935,206.36 78.93,206.36C79.924,206.36 80.73,205.555 80.73,204.56Z" style="fill:rgb(189,189,189);fill-rule:nonzero;"/>
    </g>
    <g transform="matrix(2.324334,0,0,2.199142,-121.388405,-5.938693)">
        <path d="M80.73,204.56C80.73,203.566 79.924,202.76 78.93,202.76C77.935,202.76 77.13,203.566 77.13,204.56C77.13,205.555 77.935,206.36 78.93,206.36C79.924,206.36 80.73,205.555 80.73,204.56Z" style="fill:none;stroke:rgb(189,189,189);stroke-width:0.75px;"/>
    </g>
    <g transform="matrix(2.324334,0,0,2.199142,-121.388405,-5.938693)">
        <path d="M70.7,234.51C70.7,233.516 69.894,232.71 68.9,232.71C67.905,232.71 67.1,233.516 67.1,234.51C67.1,235.505 67.905,236.311 68.9,236.311C69.894,236.311 70.7,235.505 70.7,234.51Z" style="fill:rgb(189,189,189);fill-rule:nonzero;"/>
    </g>
    <g transform="matrix(2.324334,0,0,2.199142,-121.388405,-5.938693)">
        <path d="M70.7,234.51C70.7,233.516 69.894,232.71 68.9,232.71C67.905,232.71 67.1,233.516 67.1,234.51C67.1,235.505 67.905,236.311 68.9,236.311C69.894,236.311 70.7,235.505 70.7,234.51Z" style="fill:none;stroke:rgb(189,189,189);stroke-width:0.75px;"/>
    </g>
    <g transform="matrix(2.324334,0,0,2.199142,-121.388405,-5.938693)">
        <path d="M259.269,84.45C259.269,83.456 258.464,82.651 257.47,82.651C256.475,82.651 255.67,83.456 255.67,84.45C255.67,85.445 256.475,86.25 257.47,86.25C258.464,86.25 259.269,85.445 259.269,84.45Z" style="fill:rgb(189,189,189);fill-rule:nonzero;"/>
    </g>
    <g transform="matrix(2.324334,0,0,2.199142,-121.388405,-5.938693)">
        <path d="M259.269,84.45C259.269,83.456 258.464,82.651 257.47,82.651C256.475,82.651 255.67,83.456 255.67,84.45C255.67,85.445 256.475,86.25 257.47,86.25C258.464,86.25 259.269,85.445 259.269,84.45Z" style="fill:none;stroke:rgb(189,189,189);stroke-width:0.75px;"/>
    </g>
    <g transform="matrix(2.324334,0,0,2.199142,-121.388405,-5.938693)">
        <path d="M173.8,185.07C173.8,184.076 172.994,183.27 172,183.27C171.005,183.27 170.2,184.076 170.2,185.07C170.2,186.065 171.005,186.871 172,186.871C172.994,186.871 173.8,186.065 173.8,185.07Z" style="fill:rgb(189,189,189);fill-rule:nonzero;"/>
    </g>
    <g transform="matrix(2.324334,0,0,2.199142,-121.388405,-5.938693)">
        <path d="M173.8,185.07C173.8,184.076 172.994,183.27 172,183.27C171.005,183.27 170.2,184.076 170.2,185.07C170.2,186.065 171.005,186.871 172,186.871C172.994,186.871 173.8,186.065 173.8,185.07Z" style="fill:none;stroke:rgb(189,189,189);stroke-width:0.75px;"/>
    </g>
    <g transform="matrix(2.324334,0,0,2.199142,-121.388405,-5.938693)">
        <path d="M250.66,148.13C250.66,147.136 249.854,146.33 248.86,146.33C247.865,146.33 247.06,147.136 247.06,148.13C247.06,149.125 247.865,149.931 248.86,149.931C249.854,149.931 250.66,149.125 250.66,148.13Z" style="fill:rgb(189,189,189);fill-rule:nonzero;"/>
    </g>
    <g transform="matrix(2.324334,0,0,2.199142,-121.388405,-5.938693)">
        <path d="M250.66,148.13C250.66,147.136 249.854,146.33 248.86,146.33C247.865,146.33 247.06,147.136 247.06,148.13C247.06,149.125 247.865,149.931 248.86,149.931C249.854,149.931 250.66,149.125 250.66,148.13Z" style="fill:none;stroke:rgb(189,189,189);stroke-width:0.75px;"/>
    </g>
    <g transform="matrix(2.324334,0,0,2.199142,-121.388405,-5.938693)">
        <path d="M238.91,118.08C238.91,117.086 238.104,116.28 237.11,116.28C236.115,116.28 235.31,117.086 235.31,118.08C235.31,119.075 236.115,119.88 237.11,119.88C238.104,119.88 238.91,119.075 238.91,118.08Z" style="fill:rgb(189,189,189);fill-rule:nonzero;"/>
    </g>
    <g transform="matrix(2.324334,0,0,2.199142,-121.388405,-5.938693)">
        <path d="M238.91,118.08C238.91,117.086 238.104,116.28 237.11,116.28C236.115,116.28 235.31,117.086 235.31,118.08C235.31,119.075 236.115,119.88 237.11,119.88C238.104,119.88 238.91,119.075 238.91,118.08Z" style="fill:none;stroke:rgb(189,189,189);stroke-width:0.75px;"/>
    </g>
    <g transform="matrix(2.324334,0,0,2.199142,-121.388405,-5.938693)">
        <path d="M192.15,164.49C192.15,163.496 191.344,162.69 190.35,162.69C189.355,162.69 188.55,163.496 188.55,164.49C188.55,165.485 189.355,166.291 190.35,166.291C191.344,166.291 192.15,165.485 192.15,164.49Z" style="fill:rgb(189,189,189);fill-rule:nonzero;"/>
    </g>
    <g transform="matrix(2.324334,0,0,2.199142,-121.388405,-5.938693)">
        <path d="M192.15,164.49C192.15,163.496 191.344,162.69 190.35,162.69C189.355,162.69 188.55,163.496 188.55,164.49C188.55,165.485 189.355,166.291 190.35,166.291C191.344,166.291 192.15,165.485 192.15,164.49Z" style="fill:none;stroke:rgb(189,189,189);stroke-width:0.75px;"/>
    </g>
    <g transform="matrix(2.324334,0,0,2.199142,-121.388405,-5.938693)">
        <path d="M99.62,219.24C99.62,218.246 98.814,217.44 97.82,217.44C96.825,217.44 96.02,218.246 96.02,219.24C96.02,220.235 96.825,221.041 97.82,221.041C98.814,221.041 99.62,220.235 99.62,219.24Z" style="fill:rgb(189,189,189);fill-rule:nonzero;"/>
    </g>
    <g transform="matrix(2.324334,0,0,2.199142,-121.388405,-5.938693)">
        <path d="M99.62,219.24C99.62,218.246 98.814,217.44 97.82,217.44C96.825,217.44 96.02,218.246 96.02,219.24C96.02,220.235 96.825,221.041 97.82,221.041C98.814,221.041 99.62,220.235 99.62,219.24Z" style="fill:none;stroke:rgb(189,189,189);stroke-width:0.75px;"/>
    </g>
    <g transform="matrix(2.324334,0,0,2.199142,-121.388405,-5.938693)">
        <path d="M174.63,172.49C174.63,171.496 173.824,170.69 172.83,170.69C171.835,170.69 171.03,171.496 171.03,172.49C171.03,173.485 171.835,174.291 172.83,174.291C173.824,174.291 174.63,173.485 174.63,172.49Z" style="fill:rgb(189,189,189);fill-rule:nonzero;"/>
    </g>
    <g transform="matrix(2.324334,0,0,2.199142,-121.388405,-5.938693)">
        <path d="M174.63,172.49C174.63,171.496 173.824,170.69 172.83,170.69C171.835,170.69 171.03,171.496 171.03,172.49C171.03,173.485 171.835,174.291 172.83,174.291C173.824,174.291 174.63,173.485 174.63,172.49Z" style="fill:none;stroke:rgb(189,189,189);stroke-width:0.75px;"/>
    </g>
    <g transform="matrix(2.324334,0,0,2.199142,-121.388405,-5.938693)">
        <path d="M135.11,226.94C135.11,225.946 134.304,225.14 133.31,225.14C132.315,225.14 131.51,225.946 131.51,226.94C131.51,227.935 132.315,228.741 133.31,228.741C134.304,228.741 135.11,227.935 135.11,226.94Z" style="fill:rgb(189,189,189);fill-rule:nonzero;"/>
    </g>
    <g transform="matrix(2.324334,0,0,2.199142,-121.388405,-5.938693)">
        <path d="M135.11,226.94C135.11,225.946 134.304,225.14 133.31,225.14C132.315,225.14 131.51,225.946 131.51,226.94C131.51,227.935 132.315,228.741 133.31,228.741C134.304,228.741 135.11,227.935 135.11,226.94Z" style="fill:none;stroke:rgb(189,189,189);stroke-width:0.75px;"/>
    </g>
    <g transform="matrix(2.324334,0,0,2.199142,-121.388405,-5.938693)">
        <path d="M193.42,192.34C193.42,191.346 192.614,190.54 191.62,190.54C190.625,190.54 189.819,191.346 189.819,192.34C189.819,193.335 190.625,194.14 191.62,194.14C192.614,194.14 193.42,193.335 193.42,192.34Z" style="fill:rgb(189,189,189);fill-rule:nonzero;"/>
    </g>
    <g transform="matrix(2.324334,0,0,2.199142,-121.388405,-5.938693)">
        <path d="M193.42,192.34C193.42,191.346 192.614,190.54 191.62,190.54C190.625,190.54 189.819,191.346 189.819,192.34C189.819,193.335 190.625,194.14 191.62,194.14C192.614,194.14 193.42,193.335 193.42,192.34Z" style="fill:none;stroke:rgb(189,189,189);stroke-width:0.75px;"/>
    </g>
    <g transform="matrix(2.324334,0,0,2.199142,-121.388405,-5.938693)">
        <path d="M247.26,144.76C247.26,143.766 246.454,142.96 245.46,142.96C244.465,142.96 243.66,143.766 243.66,144.76C243.66,145.755 244.465,146.56 245.46,146.56C246.454,146.56 247.26,145.755 247.26,144.76Z" style="fill:rgb(189,189,189);fill-rule:nonzero;"/>
    </g>
    <g transform="matrix(2.324334,0,0,2.199142,-121.388405,-5.938693)">
        <path d="M247.26,144.76C247.26,143.766 246.454,142.96 245.46,142.96C244.465,142.96 243.66,143.766 243.66,144.76C243.66,145.755 244.465,146.56 245.46,146.56C246.454,146.56 247.26,145.755 247.26,144.76Z" style="fill:none;stroke:rgb(189,189,189);stroke-width:0.75px;"/>
    </g>
    <g transform="matrix(2.324334,0,0,2.199142,-121.388405,-5.938693)">
        <path d="M185.74,189.82C185.74,188.826 184.934,188.02 183.94,188.02C182.945,188.02 182.14,188.826 182.14,189.82C182.14,190.815 182.945,191.621 183.94,191.621C184.934,191.621 185.74,190.815 185.74,189.82Z" style="fill:rgb(189,189,189);fill-rule:nonzero;"/>
    </g>
    <g transform="matrix(2.324334,0,0,2.199142,-121.388405,-5.938693)">
        <path d="M185.74,189.82C185.74,188.826 184.934,188.02 183.94,188.02C182.945,188.02 182.14,188.826 182.14,189.82C182.14,190.815 182.945,191.621 183.94,191.621C184.934,191.621 185.74,190.815 185.74,189.82Z" style="fill:none;stroke:rgb(189,189,189);stroke-width:0.75px;"/>
    </g>
    <g transform="matrix(2.324334,0,0,2.199142,-121.388405,-5.938693)">
        <path d="M243.89,154.76C243.89,153.766 243.084,152.96 242.09,152.96C241.095,152.96 240.29,153.766 240.29,154.76C240.29,155.755 241.095,156.56 242.09,156.56C243.084,156.56 243.89,155.755 243.89,154.76Z" style="fill:rgb(189,189,189);fill-rule:nonzero;"/>
    </g>
    <g transform="matrix(2.324334,0,0,2.199142,-121.388405,-5.938693)">
        <path d="M243.89,154.76C243.89,153.766 243.084,152.96 242.09,152.96C241.095,152.96 240.29,153.766 240.29,154.76C240.29,155.755 241.095,156.56 242.09,156.56C243.084,156.56 243.89,155.755 243.89,154.76Z" style="fill:none;stroke:rgb(189,189,189);stroke-width:0.75px;"/>
    </g>
    <g transform="matrix(2.324334,0,0,2.199142,-121.388405,-5.938693)">
        <path d="M231.26,144.56C231.26,143.566 230.454,142.76 229.46,142.76C228.465,142.76 227.66,143.566 227.66,144.56C227.66,145.555 228.465,146.36 229.46,146.36C230.454,146.36 231.26,145.555 231.26,144.56Z" style="fill:rgb(189,189,189);fill-rule:nonzero;"/>
    </g>
    <g transform="matrix(2.324334,0,0,2.199142,-121.388405,-5.938693)">
        <path d="M231.26,144.56C231.26,143.566 230.454,142.76 229.46,142.76C228.465,142.76 227.66,143.566 227.66,144.56C227.66,145.555 228.465,146.36 229.46,146.36C230.454,146.36 231.26,145.555 231.26,144.56Z" style="fill:none;stroke:rgb(189,189,189);stroke-width:0.75px;"/>
    </g>
    <g transform="matrix(2.324334,0,0,2.199142,-121.388405,-5.938693)">
        <path d="M311.93,123.47C311.93,122.476 311.124,121.67 310.13,121.67C309.135,121.67 308.33,122.476 308.33,123.47C308.33,124.465 309.135,125.27 310.13,125.27C311.124,125.27 311.93,124.465 311.93,123.47Z" style="fill:rgb(189,189,189);fill-rule:nonzero;"/>
    </g>
    <g transform="matrix(2.324334,0,0,2.199142,-121.388405,-5.938693)">
        <path d="M311.93,123.47C311.93,122.476 311.124,121.67 310.13,121.67C309.135,121.67 308.33,122.476 308.33,123.47C308.33,124.465 309.135,125.27 310.13,125.27C311.124,125.27 311.93,124.465 311.93,123.47Z" style="fill:none;stroke:rgb(189,189,189);stroke-width:0.75px;"/>
    </g>
    <g transform="matrix(2.324334,0,0,2.199142,-121.388405,-5.938693)">
        <path d="M279.47,147.15C279.47,146.156 278.664,145.35 277.67,145.35C276.675,145.35 275.87,146.156 275.87,147.15C275.87,148.145 276.675,148.95 277.67,148.95C278.664,148.95 279.47,148.145 279.47,147.15Z" style="fill:rgb(189,189,189);fill-rule:nonzero;"/>
    </g>
    <g transform="matrix(2.324334,0,0,2.199142,-121.388405,-5.938693)">
        <path d="M279.47,147.15C279.47,146.156 278.664,145.35 277.67,145.35C276.675,145.35 275.87,146.156 275.87,147.15C275.87,148.145 276.675,148.95 277.67,148.95C278.664,148.95 279.47,148.145 279.47,147.15Z" style="fill:none;stroke:rgb(189,189,189);stroke-width:0.75px;"/>
    </g>
    <g transform="matrix(2.324334,0,0,2.199142,-121.388405,-5.938693)">
        <path d="M147.26,207.66C147.26,206.666 146.454,205.86 145.46,205.86C144.465,205.86 143.66,206.666 143.66,207.66C143.66,208.655 144.465,209.46 145.46,209.46C146.454,209.46 147.26,208.655 147.26,207.66Z" style="fill:rgb(189,189,189);fill-rule:nonzero;"/>
    </g>
    <g transform="matrix(2.324334,0,0,2.199142,-121.388405,-5.938693)">
        <path d="M147.26,207.66C147.26,206.666 146.454,205.86 145.46,205.86C144.465,205.86 143.66,206.666 143.66,207.66C143.66,208.655 144.465,209.46 145.46,209.46C146.454,209.46 147.26,208.655 147.26,207.66Z" style="fill:none;stroke:rgb(189,189,189);stroke-width:0.75px;"/>
    </g>
    <g transform="matrix(2.324334,0,0,2.199142,-121.388405,-5.938693)">
        <path d="M177.87,168.9C177.87,167.906 177.064,167.1 176.07,167.1C175.075,167.1 174.27,167.906 174.27,168.9C174.27,169.895 175.075,170.7 176.07,170.7C177.064,170.7 177.87,169.895 177.87,168.9Z" style="fill:rgb(189,189,189);fill-rule:nonzero;"/>
    </g>
    <g transform="matrix(2.324334,0,0,2.199142,-121.388405,-5.938693)">
        <path d="M177.87,168.9C177.87,167.906 177.064,167.1 176.07,167.1C175.075,167.1 174.27,167.906 174.27,168.9C174.27,169.895 175.075,170.7 176.07,170.7C177.064,170.7 177.87,169.895 177.87,168.9Z" style="fill:none;stroke:rgb(189,189,189);stroke-width:0.75px;"/>
    </g>
    <g transform="matrix(2.324334,0,0,2.199142,-121.388405,-5.938693)">
        <path d="M178.08,129.48C178.08,128.486 177.274,127.68 176.28,127.68C175.285,127.68 174.48,128.486 174.48,129.48C174.48,130.475 175.285,131.28 176.28,131.28C177.274,131.28 178.08,130.475 178.08,129.48Z" style="fill:rgb(189,189,189);fill-rule:nonzero;"/>
    </g>
    <g transform="matrix(2.324334,0,0,2.199142,-121.388405,-5.938693)">
        <path d="M178.08,129.48C178.08,128.486 177.274,127.68 176.28,127.68C175.285,127.68 174.48,128.486 174.48,129.48C174.48,130.475 175.285,131.28 176.28,131.28C177.274,131.28 178.08,130.475 178.08,129.48Z" style="fill:none;stroke:rgb(189,189,189);stroke-width:0.75px;"/>
    </g>
    <g transform="matrix(2.324334,0,0,2.199142,-121.388405,-5.938693)">
        <path d="M168.8,164.49C168.8,163.496 167.994,162.69 167,162.69C166.005,162.69 165.2,163.496 165.2,164.49C165.2,165.485 166.005,166.291 167,166.291C167.994,166.291 168.8,165.485 168.8,164.49Z" style="fill:rgb(189,189,189);fill-rule:nonzero;"/>
    </g>
    <g transform="matrix(2.324334,0,0,2.199142,-121.388405,-5.938693)">
        <path d="M168.8,164.49C168.8,163.496 167.994,162.69 167,162.69C166.005,162.69 165.2,163.496 165.2,164.49C165.2,165.485 166.005,166.291 167,166.291C167.994,166.291 168.8,165.485 168.8,164.49Z" style="fill:none;stroke:rgb(189,189,189);stroke-width:0.75px;"/>
    </g>
    <g transform="matrix(2.324334,0,0,2.199142,-121.388405,-5.938693)">
        <path d="M285.259,103.5C285.259,102.506 284.454,101.7 283.46,101.7C282.465,101.7 281.66,102.506 281.66,103.5C281.66,104.495 282.465,105.3 283.46,105.3C284.454,105.3 285.259,104.495 285.259,103.5Z" style="fill:rgb(189,189,189);fill-rule:nonzero;"/>
    </g>
    <g transform="matrix(2.324334,0,0,2.199142,-121.388405,-5.938693)">
        <path d="M285.259,103.5C285.259,102.506 284.454,101.7 283.46,101.7C282.465,101.7 281.66,102.506 281.66,103.5C281.66,104.495 282.465,105.3 283.46,105.3C284.454,105.3 285.259,104.495 285.259,103.5Z" style="fill:none;stroke:rgb(189,189,189);stroke-width:0.75px;"/>
    </g>
    <g transform="matrix(2.324334,0,0,2.199142,-121.388405,-5.938693)">
        <path d="M87.21,215.37C87.21,214.376 86.404,213.57 85.41,213.57C84.415,213.57 83.61,214.376 83.61,215.37C83.61,216.365 84.415,217.17 85.41,217.17C86.404,217.17 87.21,216.365 87.21,215.37Z" style="fill:rgb(189,189,189);fill-rule:nonzero;"/>
    </g>
    <g transform="matrix(2.324334,0,0,2.199142,-121.388405,-5.938693)">
        <path d="M87.21,215.37C87.21,214.376 86.404,213.57 85.41,213.57C84.415,213.57 83.61,214.376 83.61,215.37C83.61,216.365 84.415,217.17 85.41,217.17C86.404,217.17 87.21,216.365 87.21,215.37Z" style="fill:none;stroke:rgb(189,189,189);stroke-width:0.75px;"/>
    </g>
    <g transform="matrix(2.324334,0,0,2.199142,-121.388405,-5.938693)">
        <path d="M251.36,115.95C251.36,114.956 250.554,114.15 249.56,114.15C248.565,114.15 247.76,114.956 247.76,115.95C247.76,116.945 248.565,117.75 249.56,117.75C250.554,117.75 251.36,116.945 251.36,115.95Z" style="fill:rgb(189,189,189);fill-rule:nonzero;"/>
    </g>
    <g transform="matrix(2.324334,0,0,2.199142,-121.388405,-5.938693)">
        <path d="M251.36,115.95C251.36,114.956 250.554,114.15 249.56,114.15C248.565,114.15 247.76,114.956 247.76,115.95C247.76,116.945 248.565,117.75 249.56,117.75C250.554,117.75 251.36,116.945 251.36,115.95Z" style="fill:none;stroke:rgb(189,189,189);stroke-width:0.75px;"/>
    </g>
    <g transform="matrix(2.324334,0,0,2.199142,-121.388405,-5.938693)">
        <path d="M290.3,111.46C290.3,110.466 289.494,109.66 288.5,109.66C287.505,109.66 286.7,110.466 286.7,111.46C286.7,112.455 287.505,113.261 288.5,113.261C289.494,113.261 290.3,112.455 290.3,111.46Z" style="fill:rgb(189,189,189);fill-rule:nonzero;"/>
    </g>
    <g transform="matrix(2.324334,0,0,2.199142,-121.388405,-5.938693)">
        <path d="M290.3,111.46C290.3,110.466 289.494,109.66 288.5,109.66C287.505,109.66 286.7,110.466 286.7,111.46C286.7,112.455 287.505,113.261 288.5,113.261C289.494,113.261 290.3,112.455 290.3,111.46Z" style="fill:none;stroke:rgb(189,189,189);stroke-width:0.75px;"/>
    </g>
    <g transform="matrix(2.324334,0,0,2.199142,-121.388405,-5.938693)">
        <path d="M220.83,191.82C220.83,190.826 220.024,190.02 219.03,190.02C218.035,190.02 217.23,190.826 217.23,191.82C217.23,192.815 218.035,193.621 219.03,193.621C220.024,193.621 220.83,192.815 220.83,191.82Z" style="fill:rgb(189,189,189);fill-rule:nonzero;"/>
    </g>
    <g transform="matrix(2.324334,0,0,2.199142,-121.388405,-5.938693)">
        <path d="M220.83,191.82C220.83,190.826 220.024,190.02 219.03,190.02C218.035,190.02 217.23,190.826 217.23,191.82C217.23,192.815 218.035,193.621 219.03,193.621C220.024,193.621 220.83,192.815 220.83,191.82Z" style="fill:none;stroke:rgb(189,189,189);stroke-width:0.75px;"/>
    </g>
    <g transform="matrix(2.324334,0,0,2.199142,-141.34166,15.703072)">
        <path d="M302.879,68.17C302.879,67.176 302.074,66.371 301.08,66.371C300.085,66.371 299.28,67.176 299.28,68.17C299.28,69.165 300.085,69.97 301.08,69.97C302.074,69.97 302.879,69.165 302.879,68.17Z" style="fill:rgb(189,189,189);fill-rule:nonzero;"/>
    </g>
    <g transform="matrix(2.324334,0,0,2.199142,-141.34166,15.703072)">
        <path d="M302.879,68.17C302.879,67.176 302.074,66.371 301.08,66.371C300.085,66.371 299.28,67.176 299.28,68.17C299.28,69.165 300.085,69.97 301.08,69.97C302.074,69.97 302.879,69.165 302.879,68.17Z" style="fill:none;stroke:rgb(189,189,189);stroke-width:0.75px;"/>
    </g>
    <g transform="matrix(2.324334,0,0,2.199142,-121.388405,-5.938693)">
        <path d="M259.37,115.97C259.37,114.976 258.564,114.17 257.57,114.17C256.575,114.17 255.77,114.976 255.77,115.97C255.77,116.965 256.575,117.77 257.57,117.77C258.564,117.77 259.37,116.965 259.37,115.97Z" style="fill:rgb(189,189,189);fill-rule:nonzero;"/>
    </g>
    <g transform="matrix(2.324334,0,0,2.199142,-121.388405,-5.938693)">
        <path d="M259.37,115.97C259.37,114.976 258.564,114.17 257.57,114.17C256.575,114.17 255.77,114.976 255.77,115.97C255.77,116.965 256.575,117.77 257.57,117.77C258.564,117.77 259.37,116.965 259.37,115.97Z" style="fill:none;stroke:rgb(189,189,189);stroke-width:0.75px;"/>
    </g>
    <g transform="matrix(2.324334,0,0,2.199142,-121.388405,-5.938693)">
        <path d="M178.47,138.84C178.47,137.846 177.664,137.04 176.67,137.04C175.675,137.04 174.87,137.846 174.87,138.84C174.87,139.835 175.675,140.64 176.67,140.64C177.664,140.64 178.47,139.835 178.47,138.84Z" style="fill:rgb(189,189,189);fill-rule:nonzero;"/>
    </g>
    <g transform="matrix(2.324334,0,0,2.199142,-121.388405,-5.938693)">
        <path d="M178.47,138.84C178.47,137.846 177.664,137.04 176.67,137.04C175.675,137.04 174.87,137.846 174.87,138.84C174.87,139.835 175.675,140.64 176.67,140.64C177.664,140.64 178.47,139.835 178.47,138.84Z" style="fill:none;stroke:rgb(189,189,189);stroke-width:0.75px;"/>
    </g>
    <g transform="matrix(2.324334,0,0,2.199142,-121.388405,-5.938693)">
        <path d="M255.69,152.71C255.69,151.716 254.884,150.91 253.89,150.91C252.895,150.91 252.09,151.716 252.09,152.71C252.09,153.705 252.895,154.511 253.89,154.511C254.884,154.511 255.69,153.705 255.69,152.71Z" style="fill:rgb(189,189,189);fill-rule:nonzero;"/>
    </g>
    <g transform="matrix(2.324334,0,0,2.199142,-121.388405,-5.938693)">
        <path d="M255.69,152.71C255.69,151.716 254.884,150.91 253.89,150.91C252.895,150.91 252.09,151.716 252.09,152.71C252.09,153.705 252.895,154.511 253.89,154.511C254.884,154.511 255.69,153.705 255.69,152.71Z" style="fill:none;stroke:rgb(189,189,189);stroke-width:0.75px;"/>
    </g>
    <g transform="matrix(2.324334,0,0,2.199142,-121.388405,-5.938693)">
        <path d="M177.51,197.84C177.51,196.846 176.704,196.04 175.71,196.04C174.715,196.04 173.91,196.846 173.91,197.84C173.91,198.835 174.715,199.64 175.71,199.64C176.704,199.64 177.51,198.835 177.51,197.84Z" style="fill:rgb(189,189,189);fill-rule:nonzero;"/>
    </g>
    <g transform="matrix(2.324334,0,0,2.199142,-121.388405,-5.938693)">
        <path d="M177.51,197.84C177.51,196.846 176.704,196.04 175.71,196.04C174.715,196.04 173.91,196.846 173.91,197.84C173.91,198.835 174.715,199.64 175.71,199.64C176.704,199.64 177.51,198.835 177.51,197.84Z" style="fill:none;stroke:rgb(189,189,189);stroke-width:0.75px;"/>
    </g>
    <g transform="matrix(2.324334,0,0,2.199142,-121.388405,-5.938693)">
        <path d="M169.22,145.59C169.22,144.596 168.414,143.79 167.42,143.79C166.425,143.79 165.62,144.596 165.62,145.59C165.62,146.585 166.425,147.39 167.42,147.39C168.414,147.39 169.22,146.585 169.22,145.59Z" style="fill:rgb(189,189,189);fill-rule:nonzero;"/>
    </g>
    <g transform="matrix(2.324334,0,0,2.199142,-121.388405,-5.938693)">
        <path d="M169.22,145.59C169.22,144.596 168.414,143.79 167.42,143.79C166.425,143.79 165.62,144.596 165.62,145.59C165.62,146.585 166.425,147.39 167.42,147.39C168.414,147.39 169.22,146.585 169.22,145.59Z" style="fill:none;stroke:rgb(189,189,189);stroke-width:0.75px;"/>
    </g>
    <g transform="matrix(2.324334,0,0,2.199142,-121.388405,-5.938693)">
        <path d="M132.06,177.33C132.06,176.336 131.254,175.53 130.259,175.53C129.265,175.53 128.459,176.336 128.459,177.33C128.459,178.325 129.265,179.13 130.259,179.13C131.254,179.13 132.06,178.325 132.06,177.33Z" style="fill:rgb(189,189,189);fill-rule:nonzero;"/>
    </g>
    <g transform="matrix(2.324334,0,0,2.199142,-121.388405,-5.938693)">
        <path d="M132.06,177.33C132.06,176.336 131.254,175.53 130.259,175.53C129.265,175.53 128.459,176.336 128.459,177.33C128.459,178.325 129.265,179.13 130.259,179.13C131.254,179.13 132.06,178.325 132.06,177.33Z" style="fill:none;stroke:rgb(189,189,189);stroke-width:0.75px;"/>
    </g>
    <g transform="matrix(2.324334,0,0,2.199142,-121.388405,-5.938693)">
        <path d="M93.46,245.36C93.46,244.366 92.654,243.56 91.66,243.56C90.665,243.56 89.86,244.366 89.86,245.36C89.86,246.355 90.665,247.16 91.66,247.16C92.654,247.16 93.46,246.355 93.46,245.36Z" style="fill:rgb(189,189,189);fill-rule:nonzero;"/>
    </g>
    <g transform="matrix(2.324334,0,0,2.199142,-121.388405,-5.938693)">
        <path d="M93.46,245.36C93.46,244.366 92.654,243.56 91.66,243.56C90.665,243.56 89.86,244.366 89.86,245.36C89.86,246.355 90.665,247.16 91.66,247.16C92.654,247.16 93.46,246.355 93.46,245.36Z" style="fill:none;stroke:rgb(189,189,189);stroke-width:0.75px;"/>
    </g>
    <g transform="matrix(2.324334,0,0,2.199142,-121.388405,-5.938693)">
        <path d="M253.41,141.6C253.41,140.606 252.604,139.8 251.61,139.8C250.615,139.8 249.81,140.606 249.81,141.6C249.81,142.595 250.615,143.401 251.61,143.401C252.604,143.401 253.41,142.595 253.41,141.6Z" style="fill:rgb(189,189,189);fill-rule:nonzero;"/>
    </g>
    <g transform="matrix(2.324334,0,0,2.199142,-121.388405,-5.938693)">
        <path d="M253.41,141.6C253.41,140.606 252.604,139.8 251.61,139.8C250.615,139.8 249.81,140.606 249.81,141.6C249.81,142.595 250.615,143.401 251.61,143.401C252.604,143.401 253.41,142.595 253.41,141.6Z" style="fill:none;stroke:rgb(189,189,189);stroke-width:0.75px;"/>
    </g>
    <g transform="matrix(2.324334,0,0,2.199142,-121.388405,-5.938693)">
        <path d="M245.2,164.76C245.2,163.766 244.394,162.96 243.4,162.96C242.405,162.96 241.599,163.766 241.599,164.76C241.599,165.755 242.405,166.56 243.4,166.56C244.394,166.56 245.2,165.755 245.2,164.76Z" style="fill:rgb(189,189,189);fill-rule:nonzero;"/>
    </g>
    <g transform="matrix(2.324334,0,0,2.199142,-121.388405,-5.938693)">
        <path d="M245.2,164.76C245.2,163.766 244.394,162.96 243.4,162.96C242.405,162.96 241.599,163.766 241.599,164.76C241.599,165.755 242.405,166.56 243.4,166.56C244.394,166.56 245.2,165.755 245.2,164.76Z" style="fill:none;stroke:rgb(189,189,189);stroke-width:0.75px;"/>
    </g>
    <g transform="matrix(2.324334,0,0,2.199142,-141.34166,15.703072)">
        <path d="M290.949,67.13C290.949,66.136 290.144,65.331 289.15,65.331C288.155,65.331 287.35,66.136 287.35,67.13C287.35,68.125 288.155,68.93 289.15,68.93C290.144,68.93 290.949,68.125 290.949,67.13Z" style="fill:rgb(189,189,189);fill-rule:nonzero;"/>
    </g>
    <g transform="matrix(2.324334,0,0,2.199142,-141.34166,15.703072)">
        <path d="M290.949,67.13C290.949,66.136 290.144,65.331 289.15,65.331C288.155,65.331 287.35,66.136 287.35,67.13C287.35,68.125 288.155,68.93 289.15,68.93C290.144,68.93 290.949,68.125 290.949,67.13Z" style="fill:none;stroke:rgb(189,189,189);stroke-width:0.75px;"/>
    </g>
    <g transform="matrix(2.324334,0,0,2.199142,-121.388405,-5.938693)">
        <path d="M108.94,209.61C108.94,208.616 108.134,207.81 107.14,207.81C106.145,207.81 105.34,208.616 105.34,209.61C105.34,210.605 106.145,211.41 107.14,211.41C108.134,211.41 108.94,210.605 108.94,209.61Z" style="fill:rgb(189,189,189);fill-rule:nonzero;"/>
    </g>
    <g transform="matrix(2.324334,0,0,2.199142,-121.388405,-5.938693)">
        <path d="M108.94,209.61C108.94,208.616 108.134,207.81 107.14,207.81C106.145,207.81 105.34,208.616 105.34,209.61C105.34,210.605 106.145,211.41 107.14,211.41C108.134,211.41 108.94,210.605 108.94,209.61Z" style="fill:none;stroke:rgb(189,189,189);stroke-width:0.75px;"/>
    </g>
    <g transform="matrix(2.324334,0,0,2.199142,-121.388405,-5.938693)">
        <path d="M165.67,186.37C165.67,185.376 164.864,184.57 163.87,184.57C162.875,184.57 162.069,185.376 162.069,186.37C162.069,187.365 162.875,188.17 163.87,188.17C164.864,188.17 165.67,187.365 165.67,186.37Z" style="fill:rgb(189,189,189);fill-rule:nonzero;"/>
    </g>
    <g transform="matrix(2.324334,0,0,2.199142,-121.388405,-5.938693)">
        <path d="M165.67,186.37C165.67,185.376 164.864,184.57 163.87,184.57C162.875,184.57 162.069,185.376 162.069,186.37C162.069,187.365 162.875,188.17 163.87,188.17C164.864,188.17 165.67,187.365 165.67,186.37Z" style="fill:none;stroke:rgb(189,189,189);stroke-width:0.75px;"/>
    </g>
    <g transform="matrix(2.324334,0,0,2.199142,-121.620844,14.953123)">
        <path d="M59.04,153.75L61.29,153.75M65.04,153.75L67.29,153.75M71.04,153.75L73.29,153.75M77.04,153.75L79.29,153.75M83.04,153.75L85.29,153.75M89.04,153.75L91.29,153.75M95.04,153.75L97.29,153.75M101.04,153.75L103.29,153.75M107.04,153.75L109.29,153.75M113.04,153.75L115.29,153.75M119.04,153.75L121.29,153.75M125.04,153.75L127.29,153.75M131.039,153.75L133.29,153.75M137.04,153.75L139.29,153.75M143.04,153.75L145.29,153.75M149.04,153.75L151.29,153.75M155.04,153.75L157.29,153.75M161.04,153.75L163.29,153.75M167.04,153.75L169.29,153.75M173.04,153.75L175.29,153.75M179.04,153.75L181.29,153.75M185.04,153.75L187.29,153.75M191.04,153.75L193.29,153.75M197.04,153.75L199.29,153.75M203.04,153.75L205.29,153.75M209.04,153.75L211.29,153.75M215.04,153.75L217.29,153.75M221.04,153.75L223.29,153.75M227.04,153.75L229.29,153.75M233.04,153.75L235.29,153.75M239.04,153.75L241.29,153.75M245.04,153.75L247.29,153.75M251.04,153.75L253.29,153.75M257.04,153.75L259.29,153.75M263.04,153.75L265.29,153.75M269.04,153.75L271.29,153.75M275.04,153.75L277.29,153.75M281.04,153.75L283.29,153.75M287.04,153.75L289.29,153.75M293.04,153.75L295.29,153.75M299.04,153.75L301.29,153.75M305.04,153.75L307.29,153.75M311.04,153.75L313.29,153.75M317.04,153.75L319.29,153.75M323.04,153.75L325.26,153.75" style="fill:none;stroke:black;stroke-width:1.33px;"/>
    </g>
    <g transform="matrix(2.324334,0,0,2.199142,-121.388405,-5.938693)">
        <path d="M211.66,202.47L209.86,202.47" style="fill:none;stroke:rgb(139,2,0);stroke-width:0.75px;"/>
    </g>
    <g transform="matrix(2.324334,0,0,2.199142,-121.388405,-5.938693)">
        <path d="M258.17,126.97L245.91,126.97" style="fill:none;stroke:rgb(139,2,0);stroke-width:0.75px;"/>
    </g>
    <g transform="matrix(2.324334,0,0,2.199142,-121.388405,-5.938693)">
        <path d="M295.89,143.11L272.86,143.11" style="fill:none;stroke:rgb(139,2,0);stroke-width:0.75px;"/>
    </g>
    <g transform="matrix(2.324334,0,0,2.199142,-121.388405,-5.938693)">
        <path d="M181.9,199.09L175.79,199.09" style="fill:none;stroke:rgb(139,2,0);stroke-width:0.75px;"/>
    </g>
    <g transform="matrix(2.324334,0,0,2.199142,-121.388405,-5.938693)">
        <path d="M173.6,208.12L115.68,208.12" style="fill:none;stroke:rgb(139,2,0);stroke-width:0.75px;"/>
    </g>
    <g transform="matrix(2.324334,0,0,2.199142,105.071502,-295.062104)">
        <path d="M122.59,269.47L113.9,269.47" style="fill:none;stroke:rgb(139,2,0);stroke-width:0.75px;"/>
    </g>
    <g transform="matrix(2.324334,0,0,2.199142,-121.388405,-5.938693)">
        <path d="M161.18,221.64L152.04,221.64" style="fill:none;stroke:rgb(139,2,0);stroke-width:0.75px;"/>
    </g>
    <g transform="matrix(2.324334,0,0,2.199142,-121.388405,-5.938693)">
        <path d="M113.92,204.56L78.93,204.56" style="fill:none;stroke:rgb(139,2,0);stroke-width:0.75px;"/>
    </g>
    <g transform="matrix(2.324334,0,0,2.199142,-121.388405,-5.938693)">
        <path d="M90.16,234.51L68.9,234.51" style="fill:none;stroke:rgb(139,2,0);stroke-width:0.75px;"/>
    </g>
    <g transform="matrix(2.324334,0,0,2.199142,-121.388405,-5.938693)">
        <path d="M270.67,84.45L257.47,84.45" style="fill:none;stroke:rgb(139,2,0);stroke-width:0.75px;"/>
    </g>
    <g transform="matrix(2.324334,0,0,2.199142,-121.388405,-5.938693)">
        <path d="M257.829,118.08L237.109,118.08" style="fill:none;stroke:rgb(139,2,0);stroke-width:0.75px;"/>
    </g>
    <g transform="matrix(2.324334,0,0,2.199142,-121.388405,-5.938693)">
        <path d="M113.98,219.24L97.82,219.24" style="fill:none;stroke:rgb(139,2,0);stroke-width:0.75px;"/>
    </g>
    <g transform="matrix(2.324334,0,0,2.199142,-121.388405,-5.938693)">
        <path d="M251.84,144.76L245.46,144.76" style="fill:none;stroke:rgb(139,2,0);stroke-width:0.75px;"/>
    </g>
    <g transform="matrix(2.324334,0,0,2.199142,-121.388405,-5.938693)">
        <path d="M274.73,154.76L242.09,154.76" style="fill:none;stroke:rgb(139,2,0);stroke-width:0.75px;"/>
    </g>
    <g transform="matrix(2.324334,0,0,2.199142,-121.388405,-5.938693)">
        <path d="M243.51,144.56L229.46,144.56" style="fill:none;stroke:rgb(139,2,0);stroke-width:0.75px;"/>
    </g>
    <g transform="matrix(2.324334,0,0,2.199142,-121.388405,-5.938693)">
        <path d="M291.89,147.15L277.67,147.15" style="fill:none;stroke:rgb(139,2,0);stroke-width:0.75px;"/>
    </g>
    <g transform="matrix(2.324334,0,0,2.199142,-121.388405,-5.938693)">
        <path d="M163.75,207.66L145.46,207.66" style="fill:none;stroke:rgb(139,2,0);stroke-width:0.75px;"/>
    </g>
    <g transform="matrix(2.324334,0,0,2.199142,-121.388405,-5.938693)">
        <path d="M180.72,168.9L176.07,168.9" style="fill:none;stroke:rgb(139,2,0);stroke-width:0.75px;"/>
    </g>
    <g transform="matrix(2.324334,0,0,2.199142,-121.388405,-5.938693)">
        <path d="M179.2,129.48L176.28,129.48" style="fill:none;stroke:rgb(139,2,0);stroke-width:0.75px;"/>
    </g>
    <g transform="matrix(2.324334,0,0,2.199142,-121.388405,-5.938693)">
        <path d="M194.12,164.49L167,164.49" style="fill:none;stroke:rgb(139,2,0);stroke-width:0.75px;"/>
    </g>
    <g transform="matrix(2.324334,0,0,2.199142,-121.388405,-5.938693)">
        <path d="M98.43,215.37L85.41,215.37" style="fill:none;stroke:rgb(139,2,0);stroke-width:0.75px;"/>
    </g>
    <g transform="matrix(2.324334,0,0,2.199142,-121.388405,-5.938693)">
        <path d="M226.45,191.82L219.03,191.82" style="fill:none;stroke:rgb(139,2,0);stroke-width:0.75px;"/>
    </g>
    <g transform="matrix(2.324334,0,0,2.199142,-141.34166,15.703072)">
        <path d="M315.4,68.17L301.08,68.17" style="fill:none;stroke:rgb(139,2,0);stroke-width:0.75px;"/>
    </g>
    <g transform="matrix(2.324334,0,0,2.199142,-121.388405,-5.938693)">
        <path d="M267.85,115.97L257.57,115.97" style="fill:none;stroke:rgb(139,2,0);stroke-width:0.75px;"/>
    </g>
    <g transform="matrix(2.324334,0,0,2.199142,-121.388405,-5.938693)">
        <path d="M196.48,138.84L176.67,138.84" style="fill:none;stroke:rgb(139,2,0);stroke-width:0.75px;"/>
    </g>
    <g transform="matrix(2.324334,0,0,2.199142,-121.388405,-5.938693)">
        <path d="M190.25,145.59L167.42,145.59" style="fill:none;stroke:rgb(139,2,0);stroke-width:0.75px;"/>
    </g>
    <g transform="matrix(2.324334,0,0,2.199142,-121.388405,-5.938693)">
        <path d="M165.75,177.33L130.26,177.33" style="fill:none;stroke:rgb(139,2,0);stroke-width:0.75px;"/>
    </g>
    <g transform="matrix(2.324334,0,0,2.199142,-121.388405,-5.938693)">
        <path d="M92.69,245.36L91.66,245.36" style="fill:none;stroke:rgb(139,2,0);stroke-width:0.75px;"/>
    </g>
    <g transform="matrix(2.324334,0,0,2.199142,-121.388405,-5.938693)">
        <path d="M247.35,164.76L243.4,164.76" style="fill:none;stroke:rgb(139,2,0);stroke-width:0.75px;"/>
    </g>
    <g transform="matrix(2.324334,0,0,2.199142,-141.34166,15.703072)">
        <path d="M303.17,67.13L289.15,67.13" style="fill:none;stroke:rgb(139,2,0);stroke-width:0.75px;"/>
    </g>
    <g transform="matrix(2.324334,0,0,2.199142,-121.388405,-5.938693)">
        <path d="M135.03,209.61L107.14,209.61" style="fill:none;stroke:rgb(139,2,0);stroke-width:0.75px;"/>
    </g>
    <g transform="matrix(2.324334,0,0,2.199142,-121.388405,-5.938693)">
        <path d="M304.66,93.07L306.1,93.07" style="fill:none;stroke:rgb(0,139,1);stroke-width:0.75px;"/>
    </g>
    <g transform="matrix(2.324334,0,0,2.199142,-121.388405,-5.938693)">
        <path d="M245.12,145.41L246.92,145.41" style="fill:none;stroke:rgb(0,139,1);stroke-width:0.75px;"/>
    </g>
    <g transform="matrix(2.324334,0,0,2.199142,-121.388405,-5.938693)">
        <path d="M188.91,203.11L200.35,203.11" style="fill:none;stroke:rgb(0,139,1);stroke-width:0.75px;"/>
    </g>
    <g transform="matrix(2.324334,0,0,2.199142,-121.388405,-5.938693)">
        <path d="M269.06,128.06L271.73,128.06" style="fill:none;stroke:rgb(0,139,1);stroke-width:0.75px;"/>
    </g>
    <g transform="matrix(2.324334,0,0,2.199142,-121.388405,-5.938693)">
        <path d="M151.32,185.07L172,185.07" style="fill:none;stroke:rgb(0,139,1);stroke-width:0.75px;"/>
    </g>
    <g transform="matrix(2.324334,0,0,2.199142,-121.388405,-5.938693)">
        <path d="M244.43,148.13L248.86,148.13" style="fill:none;stroke:rgb(0,139,1);stroke-width:0.75px;"/>
    </g>
    <g transform="matrix(2.324334,0,0,2.199142,-121.388405,-5.938693)">
        <path d="M188.06,164.49L190.35,164.49" style="fill:none;stroke:rgb(0,139,1);stroke-width:0.75px;"/>
    </g>
    <g transform="matrix(2.324334,0,0,2.199142,-121.388405,-5.938693)">
        <path d="M163.21,172.49L172.83,172.49" style="fill:none;stroke:rgb(0,139,1);stroke-width:0.75px;"/>
    </g>
    <g transform="matrix(2.324334,0,0,2.199142,-121.388405,-5.938693)">
        <path d="M127.01,226.94L133.31,226.94" style="fill:none;stroke:rgb(0,139,1);stroke-width:0.75px;"/>
    </g>
    <g transform="matrix(2.324334,0,0,2.199142,-121.388405,-5.938693)">
        <path d="M187.18,192.34L191.62,192.34" style="fill:none;stroke:rgb(0,139,1);stroke-width:0.75px;"/>
    </g>
    <g transform="matrix(2.324334,0,0,2.199142,-121.388405,-5.938693)">
        <path d="M168.78,189.82L183.94,189.82" style="fill:none;stroke:rgb(0,139,1);stroke-width:0.75px;"/>
    </g>
    <g transform="matrix(2.324334,0,0,2.199142,-121.388405,-5.938693)">
        <path d="M300.17,123.47L310.13,123.47" style="fill:none;stroke:rgb(0,139,1);stroke-width:0.75px;"/>
    </g>
    <g transform="matrix(2.324334,0,0,2.199142,-121.388405,-5.938693)">
        <path d="M283.37,103.5L283.46,103.5" style="fill:none;stroke:rgb(0,139,1);stroke-width:0.75px;"/>
    </g>
    <g transform="matrix(2.324334,0,0,2.199142,-121.388405,-5.938693)">
        <path d="M241.7,115.95L249.56,115.95" style="fill:none;stroke:rgb(0,139,1);stroke-width:0.75px;"/>
    </g>
    <g transform="matrix(2.324334,0,0,2.199142,-121.388405,-5.938693)">
        <path d="M280.47,111.46L288.5,111.46" style="fill:none;stroke:rgb(0,139,1);stroke-width:0.75px;"/>
    </g>
    <g transform="matrix(2.324334,0,0,2.199142,-121.388405,-5.938693)">
        <path d="M246.97,152.71L253.89,152.71" style="fill:none;stroke:rgb(0,139,1);stroke-width:0.75px;"/>
    </g>
    <g transform="matrix(2.324334,0,0,2.199142,-121.388405,-5.938693)">
        <path d="M167.13,197.84L175.71,197.84" style="fill:none;stroke:rgb(0,139,1);stroke-width:0.75px;"/>
    </g>
    <g transform="matrix(2.324334,0,0,2.199142,-121.388405,-5.938693)">
        <path d="M239.83,141.6L251.61,141.6" style="fill:none;stroke:rgb(0,139,1);stroke-width:0.75px;"/>
    </g>
    <g transform="matrix(2.324334,0,0,2.199142,-121.388405,-5.938693)">
        <path d="M149.1,186.37L163.87,186.37" style="fill:none;stroke:rgb(0,139,1);stroke-width:0.75px;"/>
    </g>
    <g transform="matrix(2.297371,0.016184,0.015312,2.189951,-123.518443,-20.823211)">
        <path d="M59.04,259.89L325.26,91" style="fill:none;stroke:rgb(99,99,223);stroke-width:3.98px;"/>
    </g>
    <g transform="matrix(4.76191,0,0,4.76191,13.129479,-61.748433)">
        <g transform="matrix(27.198716,0,0,27.198716,110.832998,138.473665)">
        </g>
        <text x="18.929px" y="138.474px" style="font-family:'DINCondensed-Bold', 'DIN Condensed';font-weight:700;font-stretch:condensed;font-size:27.199px;fill:rgb(26,46,74);">dScoreT<tspan x="85.647px 95.711px " y="138.474px 138.474px ">es</tspan>t</text>
    </g>
    <g id="path11-5" transform="matrix(14.806322,0,0,14.806322,0.000001,-1.080587)">
        <path d="M21.95,0L0,12.7L0,38.1L21.95,50.8L43.9,38.1L43.9,12.7L21.95,0ZM21.95,1.191L42.842,13.296L42.842,37.504L21.95,49.609L1.233,37.606L1.058,37.504L1.058,13.296L21.95,1.191Z" style="fill:rgb(240,165,0);"/>
    </g>
</svg>
